<?xml version="1.0" encoding="utf-8"?>
<!-- Generator: Adobe Illustrator 27.5.0, SVG Export Plug-In . SVG Version: 6.00 Build 0)  -->
<svg version="1.1" id="Layer_1" xmlns="http://www.w3.org/2000/svg" xmlns:xlink="http://www.w3.org/1999/xlink" x="0px" y="0px"
	 viewBox="0 0 3189 2000" style="enable-background:new 0 0 3189 2000;" xml:space="preserve">
<rect style="fill:#FFFFFF;" width="3189" height="2000"/>
<path style="fill:#5C91C6;" d="M2673.736,1829.889c96.019-144.187,333.028-952.155,178.228-1046.204
	c-170.066-103.323-306.727,68.882-440.35-67.869c-58.278-59.643-10.123-207.66-130.586-256.282
	c-169.206-68.296-593.206,188.413-526.396-1.013c66.813-189.426-387.709-320.099-821.222-295.013
	c-433.513,25.086-353.042,281.845-346.969,323.376c6.074,41.532,69.849,242.101-177.152,334.281
	c-247,92.18-190.312,217.789-166.017,289.71c21.16,62.642,140.709,136.752-33.406,298.827
	c-144.96,134.937-31.362,351.456,10.747,420.187H2673.736z"/>
<path style="opacity:0.5;fill:#5C91C6;" d="M401.03,824.31c-1.415,0.547-2.824,1.095-4.218,1.645
	c-0.754,0.297-1.501,0.596-2.25,0.893c-1.293,0.515-2.578,1.031-3.853,1.548c-0.753,0.305-1.504,0.61-2.25,0.917
	c-1.287,0.527-2.562,1.056-3.831,1.585c-0.686,0.286-1.376,0.572-2.058,0.859c-1.462,0.616-2.907,1.233-4.344,1.852
	c-0.459,0.198-0.925,0.394-1.382,0.592c-1.898,0.823-3.777,1.647-5.633,2.474c-0.333,0.148-0.659,0.297-0.99,0.446
	c-1.51,0.676-3.008,1.353-4.49,2.032c-0.582,0.267-1.156,0.534-1.734,0.801c-1.232,0.57-2.458,1.141-3.671,1.712
	c-0.611,0.288-1.219,0.577-1.825,0.866c-1.183,0.563-2.356,1.128-3.521,1.692c-0.581,0.282-1.161,0.563-1.737,0.846
	c-1.241,0.608-2.468,1.217-3.688,1.827c-0.461,0.231-0.928,0.462-1.387,0.693c-3.386,1.708-6.691,3.423-9.912,5.146
	c-0.295,0.158-0.583,0.316-0.876,0.474c-1.299,0.698-2.586,1.398-3.858,2.099c-0.432,0.238-0.857,0.476-1.286,0.714
	c-1.138,0.632-2.266,1.264-3.382,1.898c-0.442,0.25-0.881,0.501-1.32,0.753c-1.13,0.647-2.249,1.295-3.357,1.944
	c-0.374,0.22-0.752,0.439-1.124,0.659c-1.3,0.767-2.584,1.535-3.853,2.304c-0.156,0.095-0.316,0.19-0.472,0.284
	c-2.948,1.793-5.813,3.591-8.6,5.397c-0.2,0.13-0.397,0.26-0.597,0.39c-1.163,0.757-2.314,1.515-3.449,2.274
	c-0.278,0.186-0.553,0.371-0.83,0.557c-1.073,0.722-2.134,1.445-3.183,2.169c-0.26,0.18-0.521,0.36-0.78,0.54
	c-1.123,0.781-2.232,1.563-3.328,2.345c-0.149,0.106-0.3,0.212-0.448,0.319c-3.842,2.757-7.508,5.525-11.007,8.304
	c-0.108,0.086-0.214,0.172-0.322,0.258c-1.04,0.829-2.065,1.659-3.076,2.49c-0.151,0.124-0.301,0.248-0.452,0.372
	c-1.002,0.828-1.99,1.656-2.964,2.486c-0.104,0.088-0.209,0.176-0.312,0.265c-4.385,3.749-8.476,7.515-12.288,11.293
	c-0.05,0.05-0.1,0.1-0.15,0.15c-0.898,0.892-1.781,1.785-2.649,2.679c-0.063,0.065-0.126,0.13-0.189,0.195
	c-0.9,0.929-1.784,1.858-2.651,2.789l-23.277,31.299c0,0,0,0.001,0,0.001c-24.333,42.734-20.312,85.315-10.59,121.873
	c0,0.001,0.001,0.002,0.001,0.004c0.901,3.39,1.852,6.727,2.833,10.008c0.008,0.026,0.016,0.052,0.023,0.078
	c0.237,0.792,0.477,1.582,0.717,2.368c0.008,0.024,0.015,0.05,0.023,0.074c0.986,3.221,1.999,6.385,3.02,9.487
	c0.023,0.07,0.046,0.14,0.069,0.21c0.237,0.719,0.474,1.436,0.712,2.147c0.014,0.043,0.028,0.085,0.042,0.127
	c0.77,2.308,1.541,4.579,2.307,6.813c0.011,0.031,0.021,0.063,0.032,0.093c0.248,0.724,0.495,1.442,0.742,2.157
	c0.006,0.019,0.012,0.036,0.018,0.054c0.858,2.489,1.705,4.928,2.532,7.317c0.115,0.333,0.23,0.666,0.345,0.997
	c0.089,0.259,0.179,0.518,0.268,0.775c0.143,0.415,0.286,0.828,0.427,1.239c0.089,0.261,0.179,0.521,0.268,0.779
	c0.147,0.43,0.294,0.856,0.439,1.282c0.074,0.215,0.148,0.432,0.221,0.645c0.218,0.642,0.435,1.279,0.649,1.912
	c21.161,62.642,140.709,136.751-33.406,298.827c-97.061,90.35-78.203,217.271-42.503,311.918l2535.44,53.984
	c65.787-141.998,160.871-454.131,190.864-692.334c0.001-0.005,0.002-0.012,0.002-0.018h-84.205V763.017c0,0-0.001,0-0.001,0
	c-5.65-2.088-11.265-3.91-16.844-5.49c-0.129-0.037-0.258-0.072-0.387-0.108c-1.234-0.347-2.467-0.683-3.697-1.006
	c-0.203-0.054-0.407-0.106-0.611-0.159c-1.164-0.302-2.326-0.595-3.487-0.877c-0.228-0.056-0.456-0.11-0.685-0.165
	c-1.152-0.276-2.304-0.543-3.454-0.8c-0.213-0.047-0.426-0.095-0.639-0.142c-1.192-0.263-2.383-0.514-3.571-0.756
	c-0.16-0.032-0.319-0.066-0.479-0.098c-1.3-0.261-2.598-0.511-3.893-0.748c-0.043-0.008-0.086-0.017-0.13-0.024
	c-5.511-1.006-10.989-1.799-16.435-2.401c-0.024-0.003-0.05-0.005-0.075-0.008c-1.296-0.143-2.59-0.274-3.883-0.396
	c-0.151-0.014-0.304-0.027-0.456-0.041c-1.173-0.108-2.345-0.208-3.516-0.3c-0.201-0.016-0.403-0.031-0.605-0.046
	c-1.129-0.085-2.258-0.164-3.385-0.233c-0.213-0.013-0.426-0.026-0.639-0.039c-1.137-0.068-2.271-0.128-3.406-0.181
	c-0.185-0.008-0.369-0.018-0.555-0.026c-1.195-0.053-2.389-0.098-3.58-0.135c-0.116-0.004-0.232-0.008-0.349-0.012
	c-6.648-0.198-13.249-0.151-19.805,0.097c-0.157,0.006-0.313,0.013-0.47,0.019c-1.125,0.044-2.25,0.094-3.373,0.15
	c-0.233,0.011-0.467,0.024-0.7,0.036c-1.052,0.054-2.101,0.113-3.149,0.178c-0.268,0.016-0.535,0.033-0.802,0.05
	c-1.024,0.065-2.048,0.135-3.069,0.208c-0.27,0.019-0.539,0.039-0.808,0.059c-1.036,0.077-2.073,0.159-3.107,0.245
	c-0.244,0.021-0.489,0.04-0.733,0.061c-1.097,0.093-2.192,0.191-3.287,0.293c-0.173,0.016-0.346,0.031-0.519,0.047
	c-3.868,0.366-7.721,0.787-11.56,1.253c-0.102,0.012-0.203,0.025-0.305,0.038c-1.141,0.139-2.281,0.282-3.42,0.43
	c-0.306,0.04-0.61,0.081-0.916,0.121c-0.925,0.121-1.85,0.244-2.773,0.37c-0.412,0.056-0.824,0.114-1.235,0.171
	c-0.818,0.113-1.636,0.228-2.452,0.345c-0.467,0.067-0.934,0.135-1.4,0.203c-0.758,0.11-1.516,0.222-2.272,0.335
	c-0.502,0.075-1.003,0.15-1.505,0.226c-0.71,0.107-1.419,0.217-2.128,0.327c-0.548,0.085-1.096,0.169-1.644,0.256
	c-0.642,0.101-1.283,0.203-1.924,0.306c-0.601,0.096-1.201,0.191-1.801,0.289c-0.548,0.089-1.095,0.179-1.642,0.269
	c-0.694,0.114-1.389,0.228-2.081,0.343c-0.279,0.046-0.558,0.094-0.836,0.141c-32.706,5.487-64.39,12.567-95.383,14.884v57.018
	h-159.251v-95.895h-115.319v156.553h-118.065V610.847H1983.01c0,0,0,293.881,0,310.36h-54.914V733.068h-53.541l-207.301,100.728
	h-96.099V726.202h-285.553v-90.636h-161.996v274.655h-65.897V786.626h-79.625v90.613h-96.1V395.242H836.68l-83.744,83.77v236.203
	h-81.222v-57.678h-84.917c-0.434,1.351-0.886,2.704-1.349,4.056v215.668H453.654v-75.4c-0.002,0.001-0.004,0.002-0.006,0.003
	c-3.362,1.699-6.797,3.373-10.31,5.023c-0.032,0.015-0.063,0.03-0.095,0.045c-1.689,0.793-3.396,1.58-5.12,2.361
	c-0.096,0.043-0.191,0.087-0.288,0.131c-1.639,0.741-3.296,1.476-4.968,2.206c-0.187,0.082-0.37,0.164-0.557,0.246
	c-1.566,0.682-3.151,1.357-4.746,2.03c-0.296,0.125-0.587,0.252-0.884,0.376c-1.495,0.626-3.009,1.247-4.53,1.865
	c-0.397,0.162-0.789,0.326-1.188,0.487c-1.473,0.594-2.965,1.181-4.461,1.767c-0.448,0.175-0.888,0.354-1.339,0.529
	c-1.938,0.752-3.895,1.497-5.872,2.235c-2.121,0.792-4.215,1.587-6.292,2.383C402.337,823.801,401.686,824.056,401.03,824.31z"/>
<path style="opacity:0.8;fill:#FFFFFF;" d="M1199.394,576.263c-3.436-14.963-16.817-26.127-32.813-26.127
	c-2.937,0-5.785,0.378-8.5,1.084c-7.895-16.895-25.029-28.601-44.897-28.601c-5.137,0-10.091,0.782-14.75,2.234
	c-10.696-17.723-30.128-29.574-52.328-29.574c-26.412,0-48.908,16.774-57.432,40.257c-6.034-3.366-12.979-5.291-20.378-5.291
	c-23.151,0-41.919,18.78-41.919,41.947c0,1.373,0.071,2.73,0.2,4.07H1199.394z"/>
<path style="fill:#F48C7F;" d="M1594.481,1178.339c0,0-0.001-0.005-0.001-0.007c-22.613,5.442-46.008,10.027-53.46,11.544
	l-5.104,43.493c1.557,0.065,2.621,0.093,3.071,0.073c3.034-0.131,62.033-19.258,62.027-19.282
	c28.456-11.248,58.652-22.348,63.52-24.127l-5.779-26.83C1656.968,1165.215,1610.201,1174.057,1594.481,1178.339z"/>
<path style="fill:#96D9C9;" d="M976.895,1829.889c18.603-15.943,29.855-32.854,26.974-49.674
	c-5.14-30.003-47.736-10.722-49.355-32.384c-2.816-37.693,159.769-28.877,154.397-77.204c-5.253-47.25-124.753,30.043-129.752-4.105
	c-3.087-21.088,177.59-19.304,181.262-67.248c3.671-47.945-130.732-1.56-157.213-15.644
	c-26.481-14.084,254.734-99.413,226.587-162.11c-22.958-51.135-210.429,68.487-241.309,56.478
	c-30.88-12.011,118.928-113.232,165.236-205.863c47.889-95.793,8.746-144.024-67.048-67.844
	c-75.792,76.181-200.519,221.589-205.645,177.792c-5.126-43.796,80.073-205.729,10.861-193.607
	c-121.754,21.322-131.808,222.784-169.549,380.239c-3.996,16.673-44.727-179.622-94.102-120.45
	c-25.398,30.437,21.704,254.564,51.064,381.625H976.895z"/>
<path style="opacity:0.8;fill:#FFFFFF;" d="M1147.569,377.902c4.692-20.439,22.971-35.688,44.82-35.688
	c4.011,0,7.901,0.516,11.611,1.482c10.784-23.077,34.187-39.067,61.326-39.067c7.017,0,13.783,1.069,20.147,3.052
	c14.61-24.209,41.153-40.396,71.477-40.396c36.077,0,66.805,22.913,78.448,54.989c8.242-4.598,17.729-7.228,27.835-7.228
	c31.623,0,57.258,25.653,57.258,57.296c0,1.876-0.097,3.729-0.273,5.56H1147.569z"/>
<path style="opacity:0.8;fill:#FFFFFF;" d="M2095.553,585.731c2.559-11.142,12.522-19.454,24.434-19.454
	c2.187,0,4.307,0.281,6.329,0.808c5.878-12.58,18.636-21.296,33.431-21.296c3.824,0,7.514,0.583,10.982,1.664
	c7.965-13.197,22.434-22.021,38.964-22.021c19.666,0,36.417,12.49,42.764,29.976c4.493-2.506,9.665-3.94,15.174-3.94
	c17.238,0,31.213,13.984,31.213,31.234c0,1.023-0.053,2.033-0.149,3.03H2095.553z"/>
<path style="fill:#96D9C9;" d="M1657.916,1816.446c2.121,8.451,10.406,15.771,22.433,22.085h390.986
	c12.654-61.173,20.195-131.459-7.667-145.327c-22.445-11.173-30.254,26.46-45.446,17.005
	c-26.437-16.453,58.185-120.038,23.437-139.964c-33.972-19.481-40.446,97.372-65.582,84.092
	c-15.522-8.202,73.185-127.209,43.072-152.949c-30.111-25.741-64.363,85.979-86.559,96.703s57.27-217.331,1.932-229.13
	c-45.133-9.623-56.378,172.902-79.324,187.553c-22.947,14.65-17.708-133.943-56.889-209.692
	c-40.52-78.335-91.562-75.808-77.604,11.508c13.958,87.315,50.259,240.746,18.645,222.858
	c-31.614-17.887-98.053-153.123-123.517-101.312c-44.794,91.145,13.671,171.946,100.119,273.521
	C1725.104,1764.151,1642.477,1754.926,1657.916,1816.446z"/>
<path style="fill:#50BFA5;" d="M396.741,1830.372c0,0,325.053-282.355,744.177-299.7
	c140.741-5.825,717.039,110.949,1202.332,202.693c20.4,3.857,64.51,41.614,85.166,45.497c229.74,43.185,443.846,52.313,513.096,55.1
	L396.741,1830.372z"/>
<g>
	<path style="fill:#184655;" d="M2462.416,1704.702c1.24-10.191,1.887-20.615,1.887-31.221
		c0-118.276-79.928-214.158-178.523-214.158s-178.523,95.882-178.523,214.158c0,10.605,0.646,21.029,1.887,31.221H2462.416z"/>
	<path style="fill:#3C8F7C;" d="M2664.456,1652.068c1.241-14.373,1.887-29.073,1.887-44.029
		c0-166.801-79.928-302.021-178.523-302.021c-98.595,0-178.522,135.22-178.522,302.021c0,14.956,0.646,29.656,1.887,44.029H2664.456
		z"/>
	<path style="fill:#3C8F7C;" d="M2599.092,1837.143c-1.241-10.192-1.887-20.615-1.887-31.221
		c0-118.276,79.928-214.159,178.523-214.159c98.595,0,178.522,95.883,178.522,214.159c0,10.605-0.646,21.028-1.887,31.221H2599.092z
		"/>
	<path style="fill:#184655;" d="M2313.379,1837.143c-1.574-14.373-2.393-29.073-2.393-44.029
		c0-166.802,101.324-302.021,226.313-302.021s226.313,135.22,226.313,302.021c0,14.956-0.819,29.656-2.393,44.029H2313.379z"/>
	<path style="fill:#3C8F7C;" d="M2487.144,1491.092c-62.468,0-118.273,42.897-155.104,110.175
		c-18.755-6.177-38.683-9.504-59.339-9.504c-110.907,0-200.815,95.883-200.815,214.159c0,10.605,0.727,21.028,2.123,31.221h611.829
		c1.396-14.373,2.122-29.073,2.122-44.029C2687.959,1626.312,2598.051,1491.092,2487.144,1491.092z"/>
</g>
<g>
	<path style="fill:#184655;" d="M2437.751,1044.431c0.151-5.014,7.071-8.908,10.741-4.462c3.658,4.432,3.503,1.438,7.066,11.025
		c10.229,27.518,25.263,54.142,42.762,77.409c33.528,44.579,66.721,67.068,104.406,89.352
		c-15.529-34.988-25.929-72.334-27.254-110.008c-0.482-13.728-0.219-27.967,5.654-40.564c1.641-3.519,7.942-2.796,8.581,1.125
		c3.166,19.439-1.493,34.097,4.799,68.889c15.015,83.02,74.438,171.076,131.763,232.739
		c-10.993-104.391-16.321-223.027,3.339-328.318c3.225-17.271,8.352-33.698,13.116-50.571c1.121-3.969,6.762-2.263,6.067,1.677
		c-0.989,5.614-10.355,78.07-10.921,83.064c-9.087,80.188-7.271,169.02-0.199,250.028c44.467-60.217,74.229-130.643,88.146-204.188
		c4.114-21.739,5.212-44.186,10.979-65.521c0.795-2.939,5.651-3.256,6.255,0c5.924,31.966-5.938,88.514-14.582,119.239
		c-17.518,62.264-45.546,118.076-83.866,167.935c-1.489,1.938,61.54,489.154,59.845,495.324
		c-2.857,10.404-20.982,17.706-23.794-0.753c-1.146-7.518-35.777-303.763-51.405-440.989c-5.904-3.254-9.703-9.041-24.894-26.114
		c-35.155-39.519-69.919-88.688-93.154-135.061c-13.943-0.793-114.629-49.783-164.573-161.339
		c-1.439-3.215-7.925-18.316-8.853-21.685C2436.982,1049.779,2437.666,1047.28,2437.751,1044.431z"/>
	<path style="fill:#184655;" d="M2761.113,886.462c-1.147-14.995-1.744-30.332-1.744-45.935
		c0-174.023,73.86-315.097,164.973-315.097c91.111,0,164.972,141.074,164.972,315.097c0,15.603-0.597,30.94-1.743,45.935H2761.113z"
		/>
	<path style="fill:#3C8F7C;" d="M2574.409,809.022c-1.147-21.148-1.744-42.776-1.744-64.781
		c0-245.419,73.86-444.371,164.973-444.371c91.111,0,164.972,198.952,164.972,444.371c0,22.005-0.597,43.633-1.743,64.781H2574.409z
		"/>
	<path style="fill:#3C8F7C;" d="M2634.812,1081.324c1.146-14.995,1.743-30.332,1.743-45.936
		c0-174.022-73.859-315.096-164.972-315.096c-91.111,0-164.972,141.074-164.972,315.096c0,15.604,0.596,30.94,1.743,45.936H2634.812
		z"/>
	<path style="fill:#184655;" d="M2898.838,1081.324c1.453-21.147,2.21-42.775,2.21-64.78c0-245.419-93.633-444.371-209.135-444.371
		s-209.134,198.952-209.134,444.371c0,22.005,0.756,43.633,2.21,64.78H2898.838z"/>
	<path style="fill:#3C8F7C;" d="M2738.262,572.173c57.727,0,109.297,63.117,143.332,162.102
		c17.33-9.089,35.745-13.983,54.834-13.983c102.488,0,185.572,141.074,185.572,315.097c0,15.604-0.672,30.939-1.961,45.935h-565.388
		c-1.29-21.147-1.962-42.775-1.962-64.78C2552.689,771.125,2635.773,572.173,2738.262,572.173z"/>
</g>
<path style="fill:#3C8F7C;" d="M580.416,1292.709l-16.904-40.85c-13.115-30.044-46.675-44.392-74.958-32.045l0,0
	c-71.273,31.112-102.258,117.711-69.208,193.423l24.163,55.353c10.586,24.251,6.9,50.928-7.375,69.738
	c-12.964,17.082-15.082,40.836-6.092,61.429l12.739,29.183c13.791,31.594,40.625,54.993,72.453,64.643
	c18.614,5.644,35.052,19.613,43.745,39.528l18.037,41.319c19.941,45.682,70.967,67.496,113.97,48.724l24.535-10.71
	c43.003-18.771,61.698-71.021,41.757-116.702l0,0c-32.247-54.62-29.675-95.389-18.249-123.038
	c16.801-40.657,16.607-87.435-1.569-129.072l-2.549-5.839c-19.184-43.947-56.229-76.759-100.345-90.81
	C615.088,1340.779,594.788,1325.633,580.416,1292.709z"/>
<path style="fill:#96D9C9;" d="M855.829,1831.08c-25.029-32.45-260.16-205.919-349.652-234.891
	c-98.785-31.979-5.681,95.035-5.681,95.035s-175.241-191.621-239.548-174.346c-58.948,15.835,0,134.61,0,134.61
	s-66.394-65.771-146.908-65.771c-78.36,0,54.745,233.263,61.926,245.749L855.829,1831.08z"/>
<path style="fill:#184655;" d="M1428.463,864.902c-13.505,5.555-26.677-4.627-57.435,14.431
	c-36.995,22.922-19.291,42.741-52.72,36.619c-80.519-14.744-132.818,50.601-113.87,104.282
	c31.684,89.768,96.999,94.262,136.064,86.833c47.286-8.992,54.698-52.528,73.889-61.252c19.189-8.724,38.299,25.779,71.363,1.585
	c94.954-69.483,101.306-133.605,39.383-156.294C1498.63,881.394,1495.955,837.143,1428.463,864.902z"/>
<g>
	<path style="fill:#F47458;" d="M1717.747,799.07c185.092,24.44,332.865,61.464,330.063,82.697
		c15.632-118.394-121.741-234.184-306.833-258.624c-185.092-24.44-347.811,51.725-363.444,170.119
		C1380.34,772.03,1532.657,774.63,1717.747,799.07z"/>
	<polygon style="fill:#96D9C9;" points="2047.81,881.768 2047.81,881.768 2047.81,881.767 	"/>
</g>
<path style="fill:#F48C7F;" d="M1521.655,1203.307c0,0-14.693-46.367-15.31-51.695c-0.617-5.329,5.124-38.075,5.124-38.075
	l-3.8-64.688c0,0,54.31,125.37,57.863,151.836L1521.655,1203.307z"/>
<path style="fill:#F7A491;" d="M1324.538,1726.798c0,0-21.422,19.681-21.471,19.717c-3.002,2.222-11.054,7.091-13.39,9.495
	c-8.779,9.032,47.479,31.552,42.399,18.759c-0.46-1.158-1.323-11.348,1.398-14.683c4.192-5.141,11.735-12.464,11.735-12.464
	L1324.538,1726.798z"/>
<path style="fill:#F47458;" d="M1332.06,1774.586c0,0-12.083-6.444-17.567-10.47c-5.484-4.025-6.177-16.06-11.108-17.824
	c-5.428-1.942-28.234,21.398-28.234,21.398s44.578,48.479,67.904,64.633c5.024,3.479,11.115,2.37,13.267,2.409
	C1364.562,1834.879,1345.017,1799.846,1332.06,1774.586z"/>
<path style="fill:#F7A491;" d="M1594.316,1764.962c0,0,6.652,32.224,6.66,32.292c0.413,4.207,0.471,14.859,1.445,18.522
	c3.66,13.765,57.889-28.035,42.596-30.471c-1.384-0.221-8.264-2.986-10.629-7.233c-4.115-7.39-8.021-21.226-8.021-21.226
	L1594.316,1764.962z"/>
<path style="fill:#F47458;" d="M1644.832,1785.216c0,0-13.2,8.05-20.255,11.068s-19.96-5.361-24.512-1.576
	c-5.009,4.166,3.147,41.074,3.147,41.074s92.762-24.606,112.499-37.38C1723.531,1793.342,1676.716,1787.174,1644.832,1785.216z"/>
<path style="fill:#184655;" d="M1544.394,1322.855l57.482,229.936l36.344,222.672l-45.254,6.104c0,0-63.742-170.285-65.517-189.883
	c-1.774-19.598-33.771-111.217-33.771-111.217L1544.394,1322.855z"/>
<path style="fill:#184655;" d="M1410.232,1296.237c0,0,4.304,220.466,0.755,240.954s-99.854,195.287-99.854,195.287l32.422,35.266
	c0,0,137.795-159.874,143.867-173.976c9.52-22.11,56.521-271.365,56.521-271.365L1410.232,1296.237z"/>
<path style="fill:#F7CC7F;" d="M1450.957,1036.095c0,0-40.729-2.591-56.841,14.948c-16.113,17.538,35.743,156.281,38.673,178.603
	c2.93,22.322-24.038,66.832-24.038,66.832s112.092,52.449,139.437,34.379c0,0-4.383-178.896-7.313-194.841
	s-27.345-80.789-33.204-87.167S1450.957,1036.095,1450.957,1036.095z"/>
<path style="fill:#F7A491;" d="M1458.489,979.641c0,0-0.223,1.233-0.622,3.331c-1.918,10.063-9.304,43.446-14.294,52.624
	c-6.03,11.09,20.644,46.463,46.317,42.146c7.642-1.285-6.46-32.501-5.782-35.807c1.297-6.33,3.056-14.965,4.857-23.819
	c1.016-4.994,2.044-10.059,3.01-14.817c2.746-13.526,4.986-24.589,4.986-24.589L1458.489,979.641z"/>
<path style="fill:#F47458;" d="M1457.867,982.971c0.399-2.098,0.622-3.331,0.622-3.331l38.472-0.933c0,0-2.241,11.063-4.986,24.589
	c-0.96,4.732-1.983,9.767-2.993,14.734c-5.939-0.851-12.146-3.66-18.368-8.96c-6.784-5.778-11.23-12.721-13.914-20.134
	C1457.174,986.571,1457.569,984.532,1457.867,982.971z"/>
<path style="fill:#F7A491;" d="M1484.382,894.558c0,0-18.133-2.039-29.499,12.265c-11.366,14.303-23.617,58.536,4.618,82.585
	c28.235,24.049,56.133-3.173,60.27-32.035C1523.908,928.51,1525.516,893.516,1484.382,894.558z"/>
<path style="fill:#F7A491;" d="M1528.124,956.946c-3.37,6.375-9.027,9.904-12.635,7.884c-3.608-2.02-3.801-8.826-0.431-15.2
	c3.37-6.375,9.027-9.905,12.635-7.884C1531.301,943.766,1531.494,950.572,1528.124,956.946z"/>
<path style="fill:#184655;" d="M1486.411,889.829c0,0-24.225,42.063-41.555,44.007c-17.33,1.944-19.606,24.295-19.606,24.295
	s6.196-51.503,23.353-61.435C1465.759,886.765,1486.411,889.829,1486.411,889.829z"/>
<path style="fill:#F7A491;" d="M1449.4,944.406c1.41,7.47-1.425,14.32-6.332,15.301c-4.906,0.98-10.025-4.281-11.435-11.75
	c-1.409-7.47,1.425-14.32,6.332-15.301C1442.871,931.675,1447.99,936.936,1449.4,944.406z"/>
<path style="fill:#FFFFFF;" d="M1470.207,969.297l25.804,5.518c0,0-2.689,9.68-14.107,7.581
	C1467.982,979.837,1470.207,969.297,1470.207,969.297z"/>
<g>
	<g>
		<path style="fill:#184655;" d="M604.452,1513.663c-21.627-56.393-42.813-112.812-58.188-171.478
			c-47.315-180.535-35.893-312.122-34.128-375.391c0.233-8.356-13.149-10.65-14.317-2.022c-4.022,29.698-4.916,59.866-5.113,89.83
			c-0.333,50.629,2.739,101.284,9.215,151.879c-34.705,9.059-67.539-4.507-94.399-28.875
			c-46.301-42.008-62.829-97.99-70.106-160.011c-0.744-6.336-0.976-12.33-6.123-15.995c-1.145-3.251-5.885-4.25-7.061,0.602
			c-7.336,7.559-3.782,22.73-2.653,32.494c15.279,132.082,95.393,196.109,159.896,195.55c7.074-0.062,15.675-0.412,23.365-2.553
			c4.649,31.593,10.626,62.972,17.94,94.015c13.935,59.152,33.484,116.235,54.996,172.79
			c73.555,193.376,97.023,292.165,117.921,348.138c3.16,11.252,19.766,6.54,16.861-4.853
			C711.52,1833.725,654.133,1643.208,604.452,1513.663z"/>
		<path style="fill:#184655;" d="M899.167,1005.273c-0.697-4.163-3.122-6.921-4.044-10.816c-1.218-5.139-9.588-5.654-10.464,0
			c-0.501,3.234-2.292,5.224-2.987,8.537c-2.243,10.692,3.179,70.852-10.978,162.94c-3.762,24.475-7.918,48.813-16.051,72.175
			c-13.145,37.761-37.1,78.464-66.887,104.189c-0.946-53.94-4.165-107.811-10.619-161.394c-3.863-32.069-8.737-63.979-14.657-95.706
			c-2.883-15.449-6.002-30.85-9.355-46.195c-3.519-16.107-6.833-31.566-14.526-46.141c-2.363-4.476-9.079-2.395-9.089,2.57
			c-0.031,14.299,2.822,27.466,5.797,41.358c2.962,13.832,5.735,27.708,8.318,41.622c19.139,103.113,26.337,194.678,26.258,297.919
			c-31.556-39.783-59.145-87.427-79.587-134.223c-24.572-56.247-41.123-116.778-48.011-178.205
			c-1.927-17.185-3.099-34.462-3.466-51.76c-0.19-8.956-0.373-17.909-0.552-26.864c-0.092-4.61-1.854-18.503-9.598-14.432
			c-7.125,3.745-6.45,12.102-7.046,19.402c-0.65,7.963-0.707,15.896-0.607,23.885c0.191,15.291,1.009,30.572,2.422,45.793
			c10.243,110.315,51.776,219.352,114.927,308.699c9.625,13.618,19.567,28.217,31.257,40.102
			c-2.692,176.559-28.859,399.588-29.316,417.412c-0.101,3.934,0.785,7.958,1.364,11.846c1.195,8.017,11.699,6.155,13.846,0
			c4.058-11.633,3.641-16.164,9.692-80.572c10.792-114.858,22.88-377.984,22.835-388.65c37.495-26.999,64.045-68.531,81.394-111.908
			c9.206-23.016,14.608-46.699,18.661-71.217C901.878,1102.255,901.449,1018.906,899.167,1005.273z"/>
	</g>
	<path style="fill:#184655;" d="M641.419,861.184c1.421-12.723,2.162-25.735,2.162-38.974c0-147.649-91.551-267.342-204.484-267.342
		c-112.933,0-204.484,119.693-204.484,267.342c0,13.238,0.74,26.251,2.161,38.974H641.419z"/>
	<path style="fill:#3C8F7C;" d="M872.84,795.479c1.421-17.943,2.161-36.294,2.161-54.963c0-208.225-91.55-377.024-204.484-377.024
		s-204.484,168.8-204.484,377.024c0,18.67,0.74,37.021,2.162,54.963H872.84z"/>
	<path style="fill:#184655;" d="M470.709,1026.514c-1.802-17.943-2.74-36.293-2.74-54.964
		c0-208.224,116.058-377.024,259.224-377.024c143.165,0,259.224,168.8,259.224,377.024c0,18.67-0.938,37.021-2.74,54.964H470.709z"
		/>
	<path style="fill:#3C8F7C;" d="M669.743,594.526c-71.552,0-135.473,53.551-177.66,137.535
		c-21.481-7.711-44.307-11.863-67.968-11.863c-127.035,0-230.018,119.693-230.018,267.342c0,13.238,0.832,26.251,2.431,38.974
		H897.33c1.599-17.943,2.432-36.293,2.432-54.964C899.762,763.326,796.779,594.526,669.743,594.526z"/>
</g>
<g>
	<g>
		<g>
			<path style="fill:#355389;" d="M211.067,1423.674c7.539,4.553,14.449,10.685,21.328,16.165
				c37.433,29.821,75.41,58.676,127.046,119.343c69.039,81.113,120.608,173.226,152.058,273.822c1.125,3.6,6.798,2.057,5.654-1.563
				c-20.461-64.709-49.478-126.612-85.97-183.784C332.592,1493.192,209.738,1422.871,211.067,1423.674L211.067,1423.674z"/>
		</g>
		<g>
			<path style="fill:#355389;" d="M505.511,1608.169c51.712,51.5,96.794,109.869,130.498,174.785
				c9.461,18.224,17.466,36.974,25.716,55.756c1.095,2.493,5.337,0.715,4.415-1.867c-0.92-2.573-1.839-5.147-2.759-7.722
				c-0.541-1.514-3.273-1.436-3.031,0.411c0.348,2.651,0.697,5.304,1.045,7.955c1.582-0.215,3.164-0.43,4.745-0.645
				c-12.818-33.939-30.607-66.648-49.75-97.37C559.013,1647.393,499.602,1602.284,505.511,1608.169L505.511,1608.169z"/>
		</g>
		<path style="fill:#355389;" d="M273.183,1426.454c-1.41,2.826-7.229,10.486-8.017,19.628c-1.526,8.776,1.978,19.034,2.154,18.634
			c0.534,0.142-8.69-5.769-12.773-16.595c-4.784-10.267-4.427-25.447-0.918-30.934c5.71-12.103,18.136-14.923,21.3-9.853
			C278.238,1412.349,275.926,1420.088,273.183,1426.454z"/>
		<path style="fill:#355389;" d="M358.852,1512.723c-1.062,2.963-5.914,11.229-5.616,20.364c-0.476,8.862,4.2,18.593,4.327,18.177
			c0.546,0.076-9.275-4.676-14.591-14.9c-5.942-9.588-7.379-24.646-4.555-30.488c4.221-12.647,16.179-16.911,19.907-12.271
			C362.189,1498.171,360.815,1506.1,358.852,1512.723z"/>
		<path style="fill:#355389;" d="M467.904,1555.205c-2.195,0.755-9.194,1.767-14.313,6.161c-5.318,3.82-8.757,11.022-8.459,10.904
			c0.208,0.351-1.596-7.529,1.831-15.33c2.77-7.869,10.771-15.66,15.438-16.726c9.228-3.402,17.207,1.548,16.26,5.85
			C477.819,1550.411,472.622,1553.28,467.904,1555.205z"/>
		<path style="fill:#355389;" d="M569.682,1636.116c-1.528,1.751-7.093,6.126-9.348,12.493c-2.714,5.971-2.116,13.934-1.917,13.682
			c0.355,0.2-5.125-5.73-6.029-14.206c-1.508-8.207,1.558-18.96,5.075-22.216c6.31-7.561,15.688-7.256,17.004-3.053
			C575.897,1627.005,572.816,1632.09,569.682,1636.116z"/>
		<path style="fill:#355389;" d="M534.572,1598.429c-1.528,1.752-7.094,6.126-9.348,12.494c-2.713,5.97-2.116,13.934-1.917,13.682
			c0.355,0.2-5.125-5.73-6.029-14.206c-1.508-8.208,1.559-18.96,5.075-22.216c6.31-7.562,15.688-7.257,17.004-3.054
			C540.787,1589.318,537.706,1594.402,534.572,1598.429z"/>
		<path style="fill:#355389;" d="M496.619,1631.312c1.986-1.204,7.251-5.938,13.897-7.054c6.335-1.639,14.049,0.339,13.767,0.492
			c0.135,0.385-4.733-6.06-12.897-8.431c-7.796-2.92-18.888-1.766-22.698,1.14c-8.524,4.914-9.859,14.228-5.962,16.26
			C486.59,1635.861,492.12,1633.705,496.619,1631.312z"/>
		<path style="fill:#355389;" d="M533.871,1672.208c1.986-1.204,7.251-5.938,13.896-7.054c6.335-1.64,14.049,0.339,13.767,0.491
			c0.135,0.386-4.733-6.059-12.898-8.43c-7.796-2.92-18.888-1.766-22.697,1.14c-8.524,4.914-9.859,14.228-5.962,16.26
			C523.842,1676.758,529.371,1674.602,533.871,1672.208z"/>
		<path style="fill:#355389;" d="M561.118,1707.141c1.986-1.204,7.251-5.938,13.896-7.055c6.335-1.639,14.049,0.339,13.767,0.492
			c0.135,0.385-4.733-6.06-12.898-8.43c-7.796-2.92-18.887-1.767-22.698,1.139c-8.523,4.914-9.859,14.229-5.961,16.261
			C551.089,1711.689,556.618,1709.533,561.118,1707.141z"/>
		<path style="fill:#355389;" d="M436.351,1742.072c1.986-1.203,7.252-5.938,13.897-7.054c6.334-1.64,14.049,0.339,13.767,0.491
			c0.135,0.386-4.733-6.059-12.897-8.43c-7.796-2.92-18.888-1.766-22.698,1.14c-8.523,4.914-9.859,14.228-5.961,16.26
			C426.322,1746.622,431.851,1744.466,436.351,1742.072z"/>
		<path style="fill:#355389;" d="M478.739,1581.793c-2.195,0.755-9.194,1.767-14.313,6.161c-5.319,3.82-8.757,11.023-8.459,10.904
			c0.208,0.352-1.596-7.528,1.83-15.329c2.771-7.87,10.771-15.66,15.438-16.727c9.228-3.402,17.207,1.549,16.26,5.85
			C488.654,1577,483.456,1579.868,478.739,1581.793z"/>
		<path style="fill:#355389;" d="M236.881,1482.901c1.821-2.265,5.993-10.084,13.327-14.242c6.747-4.64,16.655-5.62,16.389-5.319
			c0.323,0.396-8.143-5.094-18.747-4.383c-10.405-0.092-22.949,6.016-26.189,11.063c-7.924,9.426-5.526,20.943-0.081,21.662
			C227.033,1492.544,232.613,1487.642,236.881,1482.901z"/>
		<path style="fill:#355389;" d="M289.318,1531.455c1.821-2.266,5.993-10.084,13.327-14.243c6.747-4.64,16.655-5.619,16.389-5.319
			c0.322,0.396-8.143-5.093-18.748-4.382c-10.405-0.092-22.949,6.015-26.189,11.062c-7.924,9.426-5.526,20.943-0.081,21.662
			C279.47,1541.098,285.049,1536.195,289.318,1531.455z"/>
		<path style="fill:#355389;" d="M382.365,1487.925c2.897,0.149,11.658-1.054,19.32,2.46c7.706,2.754,14.313,10.224,13.914,10.184
			c-0.129,0.494-0.668-9.602-7.467-17.794c-6.034-8.502-18.327-15.101-24.303-14.77c-12.261-0.9-20.151,7.808-17.535,12.65
			C368.8,1485.59,376.033,1487.241,382.365,1487.925z"/>
		<path style="fill:#355389;" d="M397.726,1525.19c2.898,0.149,11.658-1.054,19.321,2.46c7.706,2.754,14.313,10.224,13.914,10.184
			c-0.129,0.494-0.668-9.601-7.467-17.793c-6.034-8.503-18.327-15.102-24.303-14.771c-12.261-0.9-20.151,7.808-17.535,12.65
			C384.161,1522.855,391.394,1524.508,397.726,1525.19z"/>
		<path style="fill:#355389;" d="M205.998,1442.58c1.442-1.182,5.092-5.538,10.245-7.178c4.848-2.02,11.199-1.322,10.992-1.169
			c0.151,0.291-4.442-4.276-11.194-5.235c-6.522-1.437-15.203,0.736-17.902,3.477c-6.218,4.869-6.229,12.419-2.904,13.592
			C198.544,1447.33,202.693,1444.991,205.998,1442.58z"/>
		<path style="fill:#355389;" d="M219.924,1411.994c-0.074,1.865-1.352,7.41,0.439,12.525c1.305,5.099,5.679,9.77,5.676,9.512
			c0.322-0.055-6.079-0.989-10.902-5.824c-5.065-4.363-8.552-12.627-7.991-16.438c0.142-7.91,6.151-12.458,9.085-10.499
			C219.229,1403.164,219.859,1407.896,219.924,1411.994z"/>
		<g>
			<g>
				<path style="fill:#355389;" d="M382.585,1775.028c2.987,1.868,10.568,8.237,14.451,12.188
					c10.65,10.835,20.296,26.264,25.562,43.683c0.334,1.106,0.444,2.12,1.463,2.765c0.247,0.156,0.62,0.059,0.758-0.199
					c0.622-1.164,0.104-2.241-0.241-3.46c-2.475-8.739-7.559-19.71-15.214-30.38c-12.955-18.057-22.568-22.229-26.719-24.699
					C382.579,1774.887,382.52,1774.987,382.585,1775.028L382.585,1775.028z"/>
			</g>
			<path style="fill:#355389;" d="M372.043,1785.795c1.693-0.776,6.324-4.063,11.723-4.341c5.2-0.723,11.167,1.565,10.928,1.661
				c0.072,0.319-3.217-5.266-9.507-7.908c-5.946-3.046-14.893-3.149-18.196-1.185c-7.245,3.131-9.163,10.432-6.242,12.411
				C363.633,1788.497,368.237,1787.288,372.043,1785.795z"/>
			<path style="fill:#355389;" d="M393.24,1759.744c-0.543,1.786-3.18,6.824-2.739,12.229c-0.026,5.264,3.026,10.894,3.089,10.643
				c0.326,0.03-5.631-2.5-9.075-8.403c-3.798-5.508-5.084-14.388-3.58-17.931c2.135-7.616,9.097-10.489,11.44-7.849
				C394.796,1751.025,394.211,1755.763,393.24,1759.744z"/>
		</g>
		<g>
			<g>
				<path style="fill:#355389;" d="M88.315,1683.251c72.708,22.301,135.64,68.341,196.145,113.071
					c40.801,30.163,37.371,35.89,45.907,40.85c1.383,0.804,3.169-0.528,2.72-2.097c-2.196-7.658-10.523-14.142-16.181-19.383
					c-6.585-6.101-13.605-11.722-20.795-17.086c-15.383-11.477-31.364-22.212-47.212-33.028
					c-32.24-22.002-65.223-43.203-100.5-60.021c-19.34-9.219-39.319-17.017-59.92-22.902
					C88.096,1682.545,87.936,1683.135,88.315,1683.251L88.315,1683.251z"/>
			</g>
			<path style="fill:#355389;" d="M159.609,1672.908c-1.062,2.962-5.915,11.229-5.616,20.363c-0.475,8.862,4.2,18.593,4.327,18.178
				c0.545,0.076-9.276-4.677-14.591-14.9c-5.943-9.588-7.379-24.646-4.555-30.489c4.221-12.647,16.179-16.91,19.907-12.271
				C162.946,1658.355,161.571,1666.284,159.609,1672.908z"/>
			<path style="fill:#355389;" d="M220.576,1708.853c-1.062,2.962-5.914,11.229-5.616,20.364c-0.475,8.862,4.2,18.593,4.327,18.177
				c0.545,0.076-9.276-4.677-14.591-14.9c-5.943-9.587-7.379-24.646-4.555-30.488c4.22-12.647,16.179-16.911,19.907-12.271
				C223.914,1694.301,222.539,1702.229,220.576,1708.853z"/>
			<path style="fill:#355389;" d="M148.951,1746.954c1.466-2.783,4.284-11.95,11.213-17.888c6.206-6.326,16.525-9.422,16.304-9.048
				c0.424,0.353-9.697-3.719-20.81-0.764c-11.067,2.062-23.126,11.148-25.526,17.179c-6.47,11.652-1.548,23.385,4.383,23.019
				C140.483,1759.236,145.396,1752.873,148.951,1746.954z"/>
			<path style="fill:#355389;" d="M81.364,1695.752c1.442-1.181,5.091-5.537,10.245-7.178c4.847-2.02,11.199-1.322,10.992-1.168
				c0.15,0.291-4.442-4.277-11.195-5.236c-6.522-1.436-15.203,0.737-17.902,3.477c-6.217,4.869-6.229,12.419-2.904,13.592
				C73.91,1700.502,78.059,1698.163,81.364,1695.752z"/>
			<path style="fill:#355389;" d="M95.29,1665.166c-0.074,1.866-1.352,7.41,0.439,12.525c1.305,5.1,5.678,9.77,5.676,9.512
				c0.323-0.054-6.079-0.989-10.901-5.824c-5.065-4.363-8.552-12.627-7.992-16.438c0.142-7.91,6.151-12.458,9.085-10.498
				C94.594,1656.337,95.225,1661.068,95.29,1665.166z"/>
		</g>
	</g>
	<g>
		<path style="fill:#355389;" d="M397.478,1442.279c8.251,54.492,36.603,103.495,56.146,154.35
			c52.277,136.034,60.859,239.636,65.561,251.116c0.472,1.151,1.97,0.954,2.122-0.288c1.301-10.657-10.223-85.268-32.934-162.864
			c-37.762-129.016-77.292-179.409-89.109-242.808C399.042,1440.599,397.303,1441.12,397.478,1442.279L397.478,1442.279z"/>
	</g>
</g>
<path style="fill:#184655;" d="M2976.807,1851.275H114.104c-6.002,0-10.867-4.865-10.867-10.866l0,0
	c0-6.002,4.865-10.867,10.867-10.867h2862.702c6.002,0,10.866,4.865,10.866,10.867l0,0
	C2987.673,1846.41,2982.809,1851.275,2976.807,1851.275z"/>
<path style="fill:#FFFFFF;" d="M1889.314,1074.794c3.567-5.854,7.518-11.386,11.582-16.82c4.08-5.422,8.311-10.719,12.669-15.906
	c4.358-5.188,8.851-10.265,13.492-15.215c4.655-4.938,9.429-9.777,14.589-14.292c-3.563,5.858-7.512,11.391-11.578,16.824
	c-4.08,5.422-8.31,10.719-12.674,15.902c-4.363,5.184-8.855,10.26-13.497,15.21
	C1899.24,1065.435,1894.469,1070.274,1889.314,1074.794z"/>
<path style="fill:#FFFFFF;" d="M1347.045,526.397c3.567-5.853,7.517-11.385,11.582-16.82c4.08-5.422,8.311-10.718,12.669-15.906
	c4.358-5.189,8.85-10.265,13.492-15.215c4.656-4.938,9.43-9.777,14.588-14.292c-3.563,5.857-7.511,11.39-11.577,16.824
	c-4.081,5.422-8.31,10.719-12.674,15.902c-4.363,5.184-8.855,10.26-13.497,15.21
	C1356.971,517.038,1352.199,521.878,1347.045,526.397z"/>
<path style="fill:#FFFFFF;" d="M1147.569,696.639c3.567-5.853,7.517-11.385,11.582-16.82c4.08-5.422,8.311-10.719,12.669-15.907
	c4.358-5.188,8.85-10.264,13.492-15.214c4.656-4.938,9.429-9.777,14.588-14.292c-3.563,5.857-7.511,11.39-11.577,16.824
	c-4.08,5.422-8.31,10.718-12.674,15.902c-4.363,5.184-8.855,10.26-13.497,15.21C1157.496,687.28,1152.723,692.12,1147.569,696.639z"
	/>
<path style="fill:#FFFFFF;" d="M1364.852,682.933c3.568-5.853,7.518-11.385,11.583-16.82c4.08-5.422,8.31-10.719,12.669-15.906
	c4.358-5.189,8.85-10.265,13.492-15.215c4.656-4.938,9.429-9.777,14.588-14.292c-3.563,5.857-7.511,11.39-11.577,16.824
	c-4.08,5.422-8.311,10.718-12.674,15.902c-4.363,5.185-8.855,10.261-13.497,15.21
	C1374.778,673.573,1370.006,678.414,1364.852,682.933z"/>
<path style="fill:#FFFFFF;" d="M1174.386,826.596c3.567-5.854,7.517-11.385,11.582-16.82c4.08-5.422,8.311-10.718,12.669-15.906
	c4.358-5.188,8.851-10.265,13.492-15.214c4.656-4.938,9.43-9.777,14.588-14.292c-3.563,5.857-7.511,11.39-11.577,16.825
	c-4.08,5.422-8.31,10.718-12.674,15.902c-4.363,5.184-8.855,10.26-13.497,15.21C1184.312,817.236,1179.54,822.077,1174.386,826.596z
	"/>
<path style="fill:#FFFFFF;" d="M1188.529,1275.29c3.568-5.854,7.517-11.386,11.582-16.82c4.08-5.423,8.311-10.719,12.669-15.906
	c4.358-5.188,8.851-10.265,13.492-15.215c4.656-4.938,9.429-9.777,14.588-14.292c-3.563,5.857-7.511,11.391-11.577,16.824
	c-4.081,5.422-8.31,10.719-12.674,15.902c-4.363,5.184-8.855,10.26-13.497,15.21
	C1198.456,1265.931,1193.684,1270.771,1188.529,1275.29z"/>
<path style="fill:#FFFFFF;" d="M935.534,1287.354c3.568-5.853,7.518-11.385,11.583-16.819c4.08-5.423,8.31-10.719,12.669-15.906
	c4.358-5.189,8.85-10.265,13.492-15.215c4.656-4.938,9.43-9.777,14.588-14.292c-3.563,5.857-7.511,11.39-11.577,16.824
	c-4.08,5.422-8.31,10.719-12.674,15.901c-4.363,5.185-8.854,10.261-13.497,15.211
	C945.461,1277.994,940.688,1282.835,935.534,1287.354z"/>
<path style="fill:#FFFFFF;" d="M1046.49,1084.479c3.568-5.854,7.517-11.386,11.582-16.82c4.081-5.423,8.311-10.719,12.669-15.906
	c4.357-5.188,8.85-10.265,13.491-15.215c4.656-4.938,9.43-9.777,14.589-14.292c-3.563,5.857-7.511,11.391-11.577,16.824
	c-4.081,5.422-8.311,10.719-12.674,15.902c-4.363,5.184-8.855,10.26-13.497,15.21
	C1056.416,1075.12,1051.644,1079.96,1046.49,1084.479z"/>
<path style="fill:#FFFFFF;" d="M881.24,892.3c3.567-5.853,7.517-11.385,11.582-16.82c4.08-5.422,8.31-10.718,12.669-15.906
	c4.358-5.188,8.851-10.264,13.492-15.214c4.656-4.938,9.43-9.777,14.589-14.292c-3.563,5.857-7.511,11.391-11.577,16.825
	c-4.081,5.422-8.31,10.718-12.674,15.902c-4.363,5.184-8.855,10.26-13.497,15.21C891.167,882.941,886.394,887.781,881.24,892.3z"/>
<path style="fill:#FFFFFF;" d="M1020.324,426.359c3.568-5.853,7.518-11.385,11.583-16.82c4.08-5.422,8.31-10.718,12.669-15.906
	c4.358-5.189,8.85-10.265,13.492-15.215c4.656-4.938,9.429-9.777,14.588-14.292c-3.563,5.857-7.511,11.391-11.577,16.825
	c-4.08,5.422-8.31,10.718-12.674,15.902c-4.363,5.184-8.855,10.26-13.497,15.21C1030.25,417,1025.478,421.839,1020.324,426.359z"/>
<path style="fill:#FFFFFF;" d="M873.596,290.763c3.568-5.853,7.518-11.385,11.582-16.82c4.08-5.422,8.31-10.718,12.669-15.906
	c4.358-5.189,8.85-10.265,13.492-15.215c4.656-4.938,9.429-9.777,14.588-14.292c-3.563,5.857-7.511,11.391-11.577,16.824
	c-4.08,5.422-8.31,10.719-12.674,15.902c-4.363,5.184-8.854,10.26-13.497,15.21C883.522,281.404,878.75,286.244,873.596,290.763z"/>
<path style="fill:#FFFFFF;" d="M617.415,634.406c3.568-5.853,7.518-11.385,11.583-16.82c4.08-5.422,8.31-10.718,12.669-15.906
	c4.358-5.188,8.85-10.265,13.492-15.215c4.656-4.938,9.429-9.777,14.588-14.292c-3.563,5.857-7.511,11.391-11.577,16.825
	c-4.081,5.422-8.31,10.718-12.674,15.902c-4.363,5.184-8.855,10.26-13.497,15.21C627.341,625.047,622.569,629.887,617.415,634.406z"
	/>
<path style="fill:#FFFFFF;" d="M900.211,682.933c3.568-5.853,7.517-11.385,11.582-16.82c4.08-5.422,8.311-10.719,12.669-15.906
	c4.357-5.189,8.85-10.265,13.491-15.215c4.656-4.938,9.43-9.777,14.589-14.292c-3.563,5.857-7.511,11.39-11.577,16.824
	c-4.081,5.422-8.31,10.718-12.674,15.902c-4.363,5.185-8.855,10.261-13.497,15.21C910.138,673.573,905.365,678.414,900.211,682.933z
	"/>
<path style="fill:#FFFFFF;" d="M617.415,1038.229c3.568-5.854,7.518-11.386,11.583-16.82c4.08-5.422,8.31-10.719,12.669-15.906
	c4.358-5.189,8.85-10.265,13.492-15.215c4.656-4.938,9.429-9.777,14.588-14.292c-3.563,5.857-7.511,11.391-11.577,16.824
	c-4.081,5.422-8.31,10.719-12.674,15.902c-4.363,5.184-8.855,10.261-13.497,15.21
	C627.341,1028.869,622.569,1033.709,617.415,1038.229z"/>
<path style="fill:#FFFFFF;" d="M322.738,899.748c3.568-5.853,7.518-11.385,11.582-16.82c4.08-5.422,8.31-10.719,12.669-15.907
	c4.358-5.188,8.85-10.264,13.492-15.214c4.656-4.938,9.429-9.777,14.588-14.292c-3.563,5.857-7.511,11.39-11.577,16.824
	c-4.08,5.422-8.31,10.718-12.674,15.902c-4.363,5.184-8.855,10.26-13.497,15.211C332.664,890.389,327.892,895.229,322.738,899.748z"
	/>
<path style="fill:#FFFFFF;" d="M412.931,1337.135c3.568-5.854,7.517-11.385,11.582-16.82c4.08-5.422,8.311-10.718,12.669-15.906
	c4.357-5.188,8.85-10.265,13.491-15.215c4.656-4.938,9.43-9.776,14.589-14.292c-3.563,5.857-7.511,11.391-11.577,16.825
	c-4.08,5.422-8.31,10.718-12.674,15.901c-4.363,5.185-8.855,10.261-13.497,15.21
	C422.857,1327.775,418.085,1332.615,412.931,1337.135z"/>
<path style="fill:#FFFFFF;" d="M640.104,1308.119c3.568-5.854,7.518-11.385,11.582-16.82c4.08-5.422,8.31-10.718,12.669-15.906
	c4.358-5.188,8.85-10.264,13.492-15.215c4.656-4.938,9.429-9.776,14.588-14.292c-3.563,5.857-7.511,11.391-11.577,16.825
	c-4.08,5.422-8.31,10.718-12.674,15.901c-4.363,5.185-8.854,10.261-13.497,15.21C650.031,1298.76,645.258,1303.6,640.104,1308.119z"
	/>
<path style="fill:#FFFFFF;" d="M1062.886,1708.342c3.567-5.853,7.518-11.385,11.582-16.819c4.08-5.423,8.311-10.719,12.669-15.907
	c4.357-5.188,8.85-10.264,13.491-15.214c4.656-4.938,9.43-9.777,14.588-14.292c-3.563,5.856-7.511,11.39-11.577,16.824
	c-4.08,5.422-8.31,10.718-12.674,15.901c-4.363,5.185-8.855,10.261-13.497,15.211
	C1072.812,1698.982,1068.04,1703.823,1062.886,1708.342z"/>
<path style="fill:#FFFFFF;" d="M1242.408,1394.787c3.567-5.853,7.517-11.385,11.582-16.82c4.08-5.422,8.311-10.718,12.669-15.906
	c4.358-5.188,8.85-10.264,13.492-15.214c4.656-4.938,9.429-9.777,14.588-14.292c-3.563,5.856-7.511,11.39-11.577,16.824
	c-4.08,5.422-8.31,10.718-12.674,15.901c-4.363,5.185-8.855,10.261-13.497,15.21
	C1252.334,1385.428,1247.562,1390.268,1242.408,1394.787z"/>
<path style="fill:#FFFFFF;" d="M1238.348,1623.55c3.568-5.854,7.518-11.386,11.583-16.82c4.08-5.423,8.31-10.719,12.669-15.906
	c4.358-5.188,8.85-10.265,13.492-15.215c4.656-4.938,9.429-9.777,14.588-14.292c-3.563,5.857-7.511,11.391-11.577,16.824
	c-4.08,5.422-8.31,10.719-12.674,15.902c-4.363,5.184-8.854,10.26-13.497,15.21C1248.274,1614.19,1243.502,1619.03,1238.348,1623.55
	z"/>
<path style="fill:#FFFFFF;" d="M935.534,1552.646c3.568-5.854,7.518-11.386,11.583-16.82c4.08-5.422,8.31-10.718,12.669-15.906
	c4.358-5.188,8.85-10.265,13.492-15.215c4.656-4.938,9.43-9.776,14.588-14.292c-3.563,5.857-7.511,11.391-11.577,16.824
	c-4.08,5.422-8.31,10.719-12.674,15.902c-4.363,5.184-8.854,10.261-13.497,15.21
	C945.461,1543.286,940.688,1548.126,935.534,1552.646z"/>
<path style="fill:#FFFFFF;" d="M670.518,1586.799c3.567-5.854,7.517-11.385,11.582-16.82c4.08-5.422,8.311-10.718,12.669-15.906
	c4.358-5.188,8.85-10.264,13.492-15.215c4.656-4.938,9.43-9.776,14.588-14.292c-3.563,5.857-7.511,11.391-11.577,16.825
	c-4.081,5.422-8.311,10.718-12.674,15.901c-4.363,5.185-8.855,10.261-13.497,15.21
	C680.444,1577.439,675.671,1582.279,670.518,1586.799z"/>
<path style="fill:#FFFFFF;" d="M404.811,1603.398c3.568-5.854,7.518-11.386,11.583-16.82c4.08-5.422,8.31-10.719,12.669-15.906
	c4.358-5.188,8.85-10.265,13.492-15.215c4.656-4.938,9.429-9.777,14.588-14.292c-3.563,5.857-7.511,11.391-11.577,16.824
	c-4.08,5.422-8.31,10.719-12.674,15.902c-4.363,5.184-8.855,10.261-13.497,15.21
	C414.738,1594.039,409.966,1598.879,404.811,1603.398z"/>
<path style="fill:#FFFFFF;" d="M829.663,1769.934c3.568-5.854,7.518-11.386,11.582-16.82c4.081-5.423,8.311-10.719,12.669-15.906
	c4.358-5.189,8.85-10.265,13.492-15.215c4.656-4.938,9.429-9.777,14.588-14.292c-3.563,5.857-7.511,11.39-11.577,16.824
	c-4.081,5.422-8.31,10.718-12.674,15.901c-4.363,5.185-8.855,10.261-13.497,15.211
	C839.589,1760.574,834.817,1765.414,829.663,1769.934z"/>
<path style="fill:#FFFFFF;" d="M2688.632,1754.899c3.567-5.853,7.518-11.385,11.582-16.819c4.08-5.423,8.311-10.719,12.669-15.906
	c4.358-5.189,8.851-10.265,13.492-15.215c4.655-4.938,9.429-9.777,14.588-14.292c-3.563,5.856-7.511,11.39-11.577,16.824
	c-4.08,5.422-8.31,10.718-12.674,15.901c-4.363,5.185-8.854,10.261-13.497,15.211
	C2698.558,1745.54,2693.786,1750.381,2688.632,1754.899z"/>
<path style="fill:#FFFFFF;" d="M2640.178,1506.454c3.566-5.853,7.517-11.385,11.582-16.82c4.08-5.422,8.31-10.718,12.668-15.906
	s8.851-10.265,13.492-15.215c4.656-4.938,9.43-9.776,14.588-14.292c-3.563,5.857-7.511,11.391-11.576,16.824
	c-4.08,5.423-8.311,10.719-12.675,15.902c-4.362,5.185-8.854,10.261-13.497,15.21
	C2650.104,1497.095,2645.331,1501.935,2640.178,1506.454z"/>
<path style="fill:#FFFFFF;" d="M1867.704,1465.158c3.567-5.854,7.518-11.386,11.582-16.82c4.08-5.423,8.311-10.719,12.669-15.906
	c4.358-5.189,8.851-10.265,13.492-15.215c4.655-4.938,9.429-9.777,14.588-14.292c-3.563,5.857-7.511,11.391-11.577,16.824
	c-4.08,5.422-8.31,10.719-12.674,15.901c-4.363,5.185-8.854,10.261-13.497,15.211
	C1877.631,1455.799,1872.858,1460.639,1867.704,1465.158z"/>
<path style="fill:#FFFFFF;" d="M2285.779,1233.533c3.568-5.854,7.518-11.386,11.583-16.82c4.08-5.423,8.31-10.719,12.669-15.906
	c4.357-5.188,8.85-10.265,13.491-15.215c4.655-4.938,9.43-9.777,14.589-14.292c-3.563,5.857-7.512,11.39-11.577,16.824
	c-4.081,5.422-8.311,10.719-12.675,15.902c-4.363,5.184-8.854,10.26-13.496,15.21
	C2295.706,1224.174,2290.934,1229.014,2285.779,1233.533z"/>
<path style="fill:#FFFFFF;" d="M1967.812,1275.29c3.568-5.854,7.518-11.386,11.583-16.82c4.079-5.423,8.31-10.719,12.669-15.906
	c4.357-5.188,8.85-10.265,13.491-15.215c4.655-4.938,9.43-9.777,14.589-14.292c-3.563,5.857-7.512,11.391-11.577,16.824
	c-4.081,5.422-8.311,10.719-12.675,15.902c-4.363,5.184-8.854,10.26-13.496,15.21
	C1977.738,1265.931,1972.966,1270.771,1967.812,1275.29z"/>
<path style="fill:#FFFFFF;" d="M2171.032,1038.229c3.567-5.854,7.518-11.386,11.583-16.82c4.08-5.422,8.31-10.719,12.668-15.906
	c4.358-5.189,8.851-10.265,13.492-15.215c4.656-4.938,9.43-9.777,14.588-14.292c-3.563,5.857-7.511,11.391-11.576,16.824
	c-4.081,5.422-8.311,10.719-12.675,15.902c-4.363,5.184-8.854,10.261-13.497,15.21
	C2180.959,1028.869,2176.187,1033.709,2171.032,1038.229z"/>
<path style="fill:#FFFFFF;" d="M2118.701,796.915c3.567-5.853,7.518-11.385,11.582-16.82c4.08-5.422,8.311-10.718,12.669-15.906
	c4.358-5.188,8.851-10.265,13.491-15.215c4.656-4.938,9.43-9.777,14.589-14.292c-3.563,5.858-7.511,11.391-11.577,16.824
	c-4.08,5.422-8.311,10.719-12.674,15.902c-4.363,5.184-8.855,10.26-13.497,15.21
	C2128.627,787.556,2123.855,792.396,2118.701,796.915z"/>
<path style="fill:#FFFFFF;" d="M1889.314,868.631c3.567-5.853,7.518-11.385,11.582-16.82c4.08-5.422,8.311-10.719,12.669-15.906
	c4.358-5.189,8.851-10.265,13.492-15.215c4.655-4.938,9.429-9.777,14.589-14.292c-3.563,5.857-7.512,11.39-11.578,16.824
	c-4.08,5.422-8.31,10.719-12.674,15.902c-4.363,5.185-8.855,10.261-13.497,15.211
	C1899.24,859.272,1894.469,864.112,1889.314,868.631z"/>
<path style="fill:#FFFFFF;" d="M2310.986,828.031c3.567-5.853,7.518-11.385,11.582-16.82c4.08-5.422,8.311-10.719,12.67-15.906
	c4.357-5.189,8.85-10.265,13.491-15.215c4.655-4.938,9.429-9.777,14.589-14.292c-3.563,5.857-7.512,11.39-11.578,16.824
	c-4.08,5.422-8.31,10.718-12.674,15.902c-4.363,5.185-8.855,10.261-13.497,15.211
	C2320.913,818.672,2316.141,823.512,2310.986,828.031z"/>
<path style="fill:#FFFFFF;" d="M2283.131,634.406c3.567-5.853,7.518-11.385,11.582-16.82c4.08-5.422,8.311-10.718,12.669-15.906
	c4.358-5.188,8.851-10.265,13.491-15.215c4.656-4.938,9.43-9.777,14.589-14.292c-3.563,5.857-7.511,11.391-11.577,16.825
	c-4.08,5.422-8.311,10.718-12.674,15.902c-4.363,5.184-8.855,10.26-13.497,15.21
	C2293.057,625.047,2288.285,629.887,2283.131,634.406z"/>
<path style="fill:#FFFFFF;" d="M1717.89,1353.972c3.567-5.853,7.518-11.385,11.582-16.819c4.08-5.423,8.311-10.719,12.669-15.907
	s8.851-10.264,13.492-15.214c4.655-4.938,9.43-9.777,14.588-14.293c-3.563,5.857-7.511,11.391-11.576,16.825
	c-4.081,5.422-8.311,10.718-12.675,15.901c-4.363,5.185-8.854,10.261-13.497,15.211
	C1727.816,1344.612,1723.044,1349.453,1717.89,1353.972z"/>
<path style="fill:#FFFFFF;" d="M1708.202,1672.2c3.567-5.854,7.518-11.386,11.582-16.82c4.08-5.422,8.311-10.719,12.669-15.906
	c4.358-5.188,8.851-10.265,13.492-15.215c4.655-4.938,9.429-9.776,14.588-14.292c-3.563,5.857-7.511,11.391-11.577,16.824
	c-4.08,5.422-8.31,10.719-12.674,15.902c-4.363,5.184-8.855,10.26-13.497,15.21
	C1718.128,1662.841,1713.356,1667.681,1708.202,1672.2z"/>
<path style="fill:#FFFFFF;" d="M1815.372,1809.725c3.568-5.853,7.518-11.385,11.583-16.819c4.08-5.423,8.311-10.719,12.669-15.906
	c4.357-5.188,8.851-10.265,13.491-15.215c4.656-4.938,9.43-9.777,14.589-14.292c-3.563,5.857-7.512,11.391-11.577,16.824
	c-4.08,5.422-8.311,10.719-12.675,15.902c-4.362,5.184-8.854,10.26-13.496,15.21
	C1825.299,1800.365,1820.526,1805.206,1815.372,1809.725z"/>
<path style="fill:#FFFFFF;" d="M2030.013,1629.986c3.567-5.853,7.517-11.385,11.582-16.82c4.08-5.422,8.311-10.718,12.669-15.906
	c4.357-5.188,8.85-10.264,13.491-15.214c4.656-4.938,9.43-9.777,14.589-14.292c-3.563,5.856-7.511,11.39-11.577,16.824
	c-4.08,5.422-8.311,10.718-12.675,15.901c-4.362,5.185-8.854,10.261-13.496,15.21
	C2039.938,1620.627,2035.166,1625.467,2030.013,1629.986z"/>
<path style="fill:#FFFFFF;" d="M2283.131,1757.914c3.567-5.854,7.518-11.385,11.582-16.82c4.08-5.422,8.311-10.718,12.669-15.906
	s8.851-10.264,13.491-15.215c4.656-4.938,9.43-9.776,14.589-14.291c-3.563,5.856-7.511,11.39-11.577,16.824
	c-4.08,5.422-8.311,10.718-12.674,15.901c-4.363,5.185-8.855,10.261-13.497,15.21
	C2293.057,1748.555,2288.285,1753.396,2283.131,1757.914z"/>
<path style="fill:#FFFFFF;" d="M2462.893,1523.818c3.567-5.854,7.518-11.385,11.582-16.82c4.08-5.422,8.311-10.719,12.669-15.906
	c4.358-5.188,8.851-10.265,13.491-15.215c4.656-4.938,9.43-9.777,14.589-14.292c-3.563,5.857-7.511,11.391-11.577,16.824
	c-4.08,5.423-8.311,10.719-12.674,15.902s-8.855,10.26-13.497,15.21C2472.818,1514.459,2468.047,1519.299,2462.893,1523.818z"/>
<path style="fill:#FFFFFF;" d="M2511.134,1786.017c3.567-5.854,7.518-11.386,11.582-16.82c4.081-5.423,8.311-10.719,12.669-15.906
	c4.358-5.188,8.851-10.265,13.492-15.215c4.656-4.938,9.43-9.777,14.588-14.292c-3.563,5.857-7.511,11.391-11.576,16.824
	c-4.081,5.422-8.311,10.719-12.675,15.902c-4.363,5.184-8.854,10.26-13.497,15.21
	C2521.061,1776.657,2516.288,1781.497,2511.134,1786.017z"/>
<path style="fill:#FFFFFF;" d="M2285.779,1399.368c3.568-5.854,7.518-11.386,11.583-16.82c4.08-5.423,8.31-10.719,12.669-15.906
	c4.357-5.188,8.85-10.265,13.491-15.215c4.655-4.938,9.43-9.777,14.589-14.292c-3.563,5.857-7.512,11.391-11.577,16.824
	c-4.081,5.422-8.311,10.719-12.675,15.902c-4.363,5.184-8.854,10.26-13.496,15.21
	C2295.706,1390.009,2290.934,1394.849,2285.779,1399.368z"/>
<path style="fill:#FFFFFF;" d="M2530.389,1298.466c3.567-5.853,7.518-11.385,11.582-16.82c4.08-5.422,8.311-10.718,12.669-15.906
	s8.851-10.265,13.491-15.214c4.656-4.938,9.43-9.777,14.589-14.293c-3.563,5.857-7.511,11.391-11.577,16.825
	c-4.08,5.422-8.31,10.718-12.674,15.901c-4.363,5.185-8.855,10.261-13.497,15.21
	C2540.314,1289.106,2535.543,1293.946,2530.389,1298.466z"/>
<path style="fill:#FFFFFF;" d="M2022.855,603.29c3.568-5.853,7.518-11.385,11.583-16.82c4.08-5.422,8.31-10.719,12.669-15.907
	c4.357-5.188,8.85-10.264,13.491-15.214c4.656-4.938,9.43-9.777,14.589-14.292c-3.563,5.857-7.512,11.39-11.577,16.824
	c-4.08,5.422-8.311,10.718-12.675,15.902c-4.363,5.184-8.854,10.26-13.496,15.211C2032.782,593.93,2028.01,598.771,2022.855,603.29z
	"/>
<path style="fill:#FFFFFF;" d="M1627.17,495.281c3.568-5.853,7.518-11.385,11.582-16.82c4.08-5.422,8.311-10.718,12.67-15.906
	c4.357-5.189,8.85-10.264,13.491-15.214c4.655-4.938,9.43-9.777,14.589-14.292c-3.563,5.857-7.512,11.391-11.578,16.825
	c-4.08,5.422-8.31,10.718-12.674,15.902c-4.363,5.184-8.854,10.26-13.496,15.21C1637.097,485.921,1632.324,490.762,1627.17,495.281z
	"/>
<path style="fill:#F79C8D;" d="M1390.981,1004.725c0,0-49.208-88.502-61.179-107.314c-11.972-18.813-43.158-93.571-44.273-96.517
	c-1.114-2.946,21.478-38.325,16.434-39.536c-5.043-1.211-10.623,18.652-16.002,16.279c-5.379-2.373-21.096-50.192-24.162-47.82
	c-5.737,4.439,8.471,29.664,5.413,31.253c-3.058,1.59-12.322-27.753-18.327-26.889c-6.005,0.863,11.421,26.894,9.742,29.192
	c-1.679,2.299-19.771-22.227-23.045-16.998c-1.778,2.839,16.634,21.41,13.098,23.148c-3.536,1.739-19.914-10.247-21.648-6.791
	c-1.735,3.457,15.147,8.191,20.195,17.509c5.048,9.319,13.645,13.348,17.215,30.604c3.57,17.257,8.906,79.705,27.194,110.862
	c18.288,31.156,58.505,100.112,58.505,100.112L1390.981,1004.725z"/>
<path style="fill:#F7CC7F;" d="M1377.362,976.044c0,0,54.43,58.862,62.522,82.583c8.092,23.723-7.889,57.657-29.958,59.141
	c-22.069,1.482-71.183-104.475-71.183-104.475L1377.362,976.044z"/>
<path style="fill:#F48C7F;" d="M1658.046,1164.938l5.085,25.422c4.338-1.013,15.256-3.532,21.28-4.674l-8.216-34.121l0.427-1.318
	c0.081-0.326,0.193-0.667,0.329-1.015l0.002-0.005v-0.001c0.67-1.711,1.889-3.565,2.55-4.313c1.079-1.221,2.226-2.755,3.305-3.977
	c1.079-1.221-0.826-5.956-2.252-7.406c-1.425-1.45-4.897,5.407-6.479,7.136c-4.773,5.217-14.544,21.349-16.229,23.982
	L1658.046,1164.938z"/>
<path style="fill:#E85D46;" d="M1722.347,799.522c26.353,3.48,51.946,7.214,76.458,11.122
	c-6.514-59.432-20.59-132.503-31.336-183.697c-7.218-1.258-14.517-2.379-21.892-3.353c-7.372-0.974-14.709-1.786-22.002-2.444
	c-23.666,46.65-56.227,113.563-77.943,169.267C1670.315,793.007,1695.998,796.043,1722.347,799.522z"/>
<path style="fill:#E85D46;" d="M1539.532,781.648c63.671-108.093,162.27-155.804,174.607-161.456
	c-38.567-3.04-75.852-1.718-110.678,3.413c-90.594,45.126-151.094,108.744-187.695,157.977
	C1443.383,778.564,1486.504,778.618,1539.532,781.648z"/>
<path style="fill:#E85D46;" d="M1900.003,828.98c51.114,10.545,92.525,21.406,119.217,31.327
	c-22.661-56.945-64.524-133.571-139.855-200.271c-32.302-13.995-67.965-24.948-105.999-32.023
	C1783.805,636.667,1866.521,708.233,1900.003,828.98z"/>
<path style="fill:#184655;" d="M1717.786,798.594c-185.092-24.44-337.411-27.04-340.215-5.808
	c-2.804,21.233,144.97,58.257,330.063,82.697c185.092,24.44,337.411,27.04,340.215,5.807
	C2050.652,860.058,1902.878,823.033,1717.786,798.594z"/>
<g>
	<polygon style="fill:#F3FCFF;" points="1749.181,676.456 1749.182,676.456 1749.182,676.456 	"/>
	
		<rect x="1497.967" y="998.833" transform="matrix(0.1309 -0.9914 0.9914 0.1309 484.8402 2558.9348)" style="fill:#F3FCFF;" width="407.938" height="8.202"/>
</g>
<path style="fill:#FFFFFF;" d="M1841.538,704.305c3.567-5.853,7.518-11.385,11.583-16.82c4.08-5.422,8.31-10.718,12.668-15.906
	c4.358-5.189,8.851-10.264,13.492-15.214c4.656-4.939,9.43-9.777,14.589-14.293c-3.563,5.857-7.512,11.391-11.577,16.825
	c-4.08,5.422-8.311,10.718-12.675,15.902c-4.363,5.184-8.854,10.26-13.497,15.21
	C1851.465,694.946,1846.692,699.786,1841.538,704.305z"/>
<path style="fill:#FFFFFF;" d="M1614.866,714.049c3.567-5.853,7.518-11.385,11.582-16.82c4.081-5.422,8.311-10.718,12.669-15.906
	c4.358-5.189,8.851-10.264,13.492-15.214c4.656-4.938,9.43-9.777,14.588-14.292c-3.563,5.857-7.511,11.391-11.576,16.825
	c-4.081,5.422-8.311,10.718-12.675,15.902c-4.363,5.184-8.854,10.26-13.497,15.21C1624.793,704.69,1620.021,709.53,1614.866,714.049
	z"/>
<g>
	<path style="fill:#184655;" d="M1695.037,1232.429c16.717,2.043,31.879-10.052,34.083-26.748l1.055-7.987
		c0.584-4.42-2.526-8.477-6.946-9.061l0,0c-4.42-0.583-8.477,2.526-9.061,6.947l-1.07,8.105c-1.032,7.82-8.059,13.588-15.901,12.74
		c-8.079-0.873-13.833-8.242-12.775-16.254l6.749-51.115c0.289-2.189-1.251-4.198-3.44-4.487l-8.079-1.066
		c-2.188-0.289-4.198,1.251-4.487,3.44l-6.749,51.115C1666.193,1214.881,1678.156,1230.366,1695.037,1232.429z"/>
</g>
<path style="fill:#F7A491;" d="M1699.094,1176.811c0.746-1.643,1.323-3.458,1.761-5.36c0.426-2.063,0.666-4.75,0.313-5.839
	c-0.224-0.693,0.229-2.092,0.593-3.585c0.117-0.479,0.181-0.974,0.175-1.468c0-0.011,0-0.021,0-0.033
	c-0.018-1.433-0.32-2.836-0.79-4.187c-0.445-1.282-0.634-2.686-0.626-4.838c0.007-1.671-0.339-3.348-1.133-4.811
	c-0.781-1.44-4.493-1.033-5.438-0.592c-4.371,2.041-19.094,4.934-18.783,13.111c0.259,6.843,1.408,14.598,0.847,17.349
	c-0.769,3.771,3.717,6.668,7.015,7.513C1689.234,1185.661,1695.254,1185.264,1699.094,1176.811z"/>
</svg>
