<?xml version="1.0" encoding="utf-8"?>
<!-- Generator: Adobe Illustrator 27.5.0, SVG Export Plug-In . SVG Version: 6.00 Build 0)  -->
<svg version="1.1" xmlns="http://www.w3.org/2000/svg" xmlns:xlink="http://www.w3.org/1999/xlink" x="0px" y="0px"
	 viewBox="0 0 750 500" style="enable-background:new 0 0 750 500;" xml:space="preserve">
<g id="BACKGROUND">
	<g>
		<rect style="fill:#FFEEA4;" width="750" height="500"/>
		<g>
			<defs>
				<rect id="SVGID_1_" width="750" height="500"/>
			</defs>
			<clipPath id="SVGID_00000160158755789702254520000006418317314793317050_">
				<use xlink:href="#SVGID_1_"  style="overflow:visible;"/>
			</clipPath>
			<path style="opacity:0.6;clip-path:url(#SVGID_00000160158755789702254520000006418317314793317050_);fill:#FFFFFF;" d="
				M840.139-85.3v618.52h-618.52v-38.66c0-10.68,4.33-20.34,11.32-27.34c7-6.99,16.66-11.32,27.34-11.32
				c10.68,0,20.34-4.33,27.34-11.32c2.29-2.29,4.29-4.86,5.95-7.67c3.41-5.76,5.37-12.48,5.37-19.67c0-10.68,4.32-20.34,11.32-27.33
				c6.99-6.99,16.66-11.32,27.33-11.32c10.67,0,20.34-4.33,27.34-11.32c4.78-4.79,8.32-10.82,10.07-17.57
				c0.82-3.12,1.25-6.4,1.25-9.77c0-10.67,4.33-20.34,11.32-27.34c7-6.99,16.67-11.32,27.34-11.32c10.67,0,20.34-4.33,27.34-11.32
				c6.99-7,11.32-16.67,11.32-27.34c0-10.67,4.33-20.34,11.32-27.33c6.99-7,16.65-11.32,27.33-11.32
				c21.35,0,38.66-17.31,38.66-38.66c0-10.68,4.33-20.34,11.32-27.34c7-6.99,16.66-11.32,27.34-11.32
				c10.68,0,20.34-4.33,27.34-11.32c6.99-7,11.32-16.66,11.32-27.34c0-21.35,17.3-38.65,38.65-38.65h0.01
				c10.67,0,20.33-4.33,27.33-11.32c6.99-7,11.32-16.67,11.32-27.34s4.33-20.34,11.32-27.34c7-6.99,16.67-11.32,27.34-11.32
				c10.67,0,20.34-4.33,27.34-11.32c6.99-7,11.32-16.67,11.32-27.34c0-21.35,17.31-38.65,38.66-38.65H840.139z"/>
			<path style="opacity:0.6;clip-path:url(#SVGID_00000160158755789702254520000006418317314793317050_);fill:#FFFFFF;" d="
				M842.569,93.34v141.01c-0.82,0-1.63,0.03-2.43,0.09v298.78h-0.14V560h-509.42c0.95-1.28,2-2.49,3.12-3.61
				c5.86-5.87,13.96-9.49,22.91-9.49c6.83,0,13.17-2.11,18.39-5.73c1.62-1.11,3.13-2.37,4.52-3.76c1.29-1.29,2.47-2.69,3.53-4.19
				c3.75-5.29,5.96-11.75,5.96-18.72c0-17.89,14.5-32.4,32.39-32.4h0.01c8.95,0,17.04-3.62,22.9-9.49
				c5.87-5.86,9.49-13.95,9.49-22.9c0-4.55,0.94-8.88,2.63-12.8c1.63-3.8,3.98-7.23,6.86-10.11c5.87-5.86,13.97-9.49,22.91-9.49
				c8.94,0,17.04-3.63,22.91-9.49c5.86-5.86,9.49-13.96,9.49-22.91c0-8.95,3.62-17.04,9.49-22.9c5.86-5.87,13.95-9.49,22.9-9.49
				c17.9,0,32.4-14.51,32.4-32.4c0-8.94,3.63-17.04,9.49-22.91c5.86-5.86,13.96-9.49,22.91-9.49c8.95,0,17.04-3.62,22.9-9.49
				c5.87-5.86,9.49-13.96,9.49-22.91c0-8.94,3.63-17.04,9.49-22.9c5.87-5.86,13.97-9.49,22.91-9.49c8.94,0,17.04-3.63,22.91-9.49
				c5.86-5.86,9.49-13.96,9.49-22.91s3.62-17.05,9.49-22.91c5.86-5.86,13.96-9.49,22.91-9.49c8.94,0,17.04-3.63,22.9-9.49
				c5.86-5.86,9.49-13.96,9.49-22.9c0-17.9,14.51-32.4,32.4-32.4H842.569z"/>
			<path style="opacity:0.6;clip-path:url(#SVGID_00000160158755789702254520000006418317314793317050_);fill:#FFFFFF;" d="
				M840.139,234.44v298.78h-0.14V560h-331.69c3.25-1.09,6.72-1.68,10.33-1.68c8.95,0,17.05-3.62,22.91-9.49
				c4.23-4.22,7.29-9.59,8.67-15.61c0.54-2.34,0.82-4.78,0.82-7.29c0-8.95,3.63-17.05,9.49-22.91c5.87-5.86,13.97-9.49,22.91-9.49
				c8.94,0,17.04-3.63,22.9-9.49c5.86-5.86,9.49-13.96,9.49-22.91c0-8.95,3.63-17.04,9.49-22.9c5.86-5.87,13.96-9.49,22.91-9.49
				c17.89,0,32.4-14.51,32.4-32.4c0-8.94,3.63-17.04,9.49-22.91c5.86-5.86,13.96-9.49,22.91-9.49s17.04-3.62,22.9-9.49
				c5.87-5.86,9.49-13.96,9.49-22.91c0-8.94,3.63-17.04,9.49-22.9c5.87-5.86,13.97-9.49,22.91-9.49c8.94,0,17.04-3.63,22.91-9.49
				c5.86-5.86,9.49-13.96,9.49-22.91s3.62-17.05,9.49-22.91c5.28-5.28,12.38-8.75,20.29-9.39
				C840.039,234.45,840.089,234.45,840.139,234.44z"/>
			<path style="opacity:0.6;clip-path:url(#SVGID_00000160158755789702254520000006418317314793317050_);fill:#FFFFFF;" d="
				M528.379,494.56v38.66h-618.52V-85.3h38.66c21.35,0,38.65,17.3,38.65,38.65c0,10.67,4.33,20.34,11.32,27.34
				c7,6.99,16.67,11.32,27.34,11.32c10.67,0,20.34,4.33,27.34,11.32c6.99,7,11.32,16.67,11.32,27.34s4.33,20.34,11.32,27.34
				c7,6.99,16.67,11.32,27.34,11.32c10.67,0,20.34,4.33,27.33,11.32c7,6.99,11.32,16.65,11.32,27.33s4.33,20.34,11.32,27.34
				c7,6.99,16.66,11.32,27.34,11.32c10.68,0,20.34,4.33,27.34,11.32c6.99,7,11.32,16.66,11.32,27.34
				c0,21.35,17.31,38.66,38.66,38.66c10.68,0,20.34,4.32,27.33,11.32c6.99,6.99,11.32,16.66,11.32,27.33
				c0,10.67,4.33,20.34,11.32,27.34c7,6.99,16.67,11.32,27.34,11.32c10.67,0,20.34,4.33,27.34,11.32c6.99,7,11.32,16.67,11.32,27.34
				c0,3.37,0.43,6.65,1.25,9.77c1.75,6.75,5.29,12.78,10.07,17.57c7,6.99,16.67,11.32,27.34,11.32c10.67,0,20.34,4.33,27.33,11.32
				c7,6.99,11.32,16.65,11.32,27.33c0,7.19,1.96,13.91,5.37,19.67c1.66,2.81,3.66,5.38,5.95,7.67c7,6.99,16.66,11.32,27.34,11.32
				c10.68,0,20.34,4.33,27.34,11.32C524.049,474.22,528.379,483.88,528.379,494.56z"/>
			<path style="opacity:0.6;clip-path:url(#SVGID_00000160158755789702254520000006418317314793317050_);fill:#FFFFFF;" d="
				M419.419,560h-509.42v-26.78h-0.14V234.44c-0.8-0.06-1.61-0.09-2.43-0.09V93.34h32.4c17.89,0,32.4,14.5,32.4,32.4
				c0,8.94,3.63,17.04,9.49,22.9s13.96,9.49,22.91,9.49c8.95,0,17.04,3.63,22.9,9.49c5.87,5.86,9.49,13.96,9.49,22.91
				s3.63,17.05,9.49,22.91c5.87,5.86,13.97,9.49,22.91,9.49c8.94,0,17.04,3.63,22.91,9.49c5.86,5.86,9.49,13.96,9.49,22.9
				c0,8.95,3.62,17.05,9.49,22.91c5.86,5.87,13.95,9.49,22.9,9.49c8.95,0,17.05,3.63,22.91,9.49c5.86,5.87,9.49,13.97,9.49,22.91
				c0,17.89,14.51,32.4,32.4,32.4c8.95,0,17.05,3.62,22.91,9.49c5.86,5.86,9.49,13.95,9.49,22.9c0,8.95,3.63,17.05,9.49,22.91
				c5.86,5.86,13.96,9.49,22.9,9.49c8.94,0,17.04,3.63,22.91,9.49c2.88,2.88,5.23,6.31,6.86,10.11c1.69,3.92,2.63,8.25,2.63,12.8
				c0,8.95,3.62,17.04,9.49,22.9c5.86,5.87,13.96,9.49,22.91,9.49c8.94,0,17.04,3.63,22.9,9.49c5.86,5.87,9.49,13.97,9.49,22.91
				c0,6.97,2.21,13.43,5.96,18.72c1.06,1.5,2.24,2.9,3.53,4.19c1.39,1.39,2.9,2.65,4.52,3.76c5.22,3.62,11.56,5.73,18.39,5.73
				c8.95,0,17.05,3.62,22.91,9.49C417.419,557.51,418.469,558.72,419.419,560z"/>
			<path style="opacity:0.6;clip-path:url(#SVGID_00000160158755789702254520000006418317314793317050_);fill:#FFFFFF;" d="
				M-90.001,560v-26.78h-0.14V234.44c0.05,0.01,0.1,0.01,0.14,0.01c7.91,0.64,15.01,4.11,20.29,9.39
				c5.87,5.86,9.49,13.96,9.49,22.91s3.63,17.05,9.49,22.91c5.87,5.86,13.97,9.49,22.91,9.49c8.94,0,17.04,3.63,22.91,9.49
				c5.86,5.86,9.49,13.96,9.49,22.9c0,8.95,3.62,17.05,9.49,22.91c5.86,5.87,13.96,9.49,22.91,9.49c8.94,0,17.04,3.63,22.9,9.49
				c5.86,5.87,9.49,13.97,9.49,22.91c0,17.89,14.51,32.4,32.4,32.4c8.95,0,17.05,3.62,22.91,9.49c5.86,5.86,9.49,13.95,9.49,22.9
				c0,8.95,3.63,17.05,9.49,22.91c5.86,5.86,13.96,9.49,22.9,9.49c8.95,0,17.05,3.63,22.91,9.49c5.87,5.86,9.49,13.96,9.49,22.91
				c0,2.51,0.28,4.95,0.82,7.29c1.39,6.02,4.45,11.39,8.67,15.61c5.87,5.87,13.97,9.49,22.91,9.49c3.61,0,7.08,0.59,10.33,1.68
				H-90.001z"/>
		</g>
	</g>
</g>
<g id="OBJECTS">
	<g>
		<defs>
			
				<rect id="SVGID_00000123440558594177424580000001962229623078817417_" transform="matrix(-1 -1.224647e-16 1.224647e-16 -1 750 500)" width="750" height="500"/>
		</defs>
		<clipPath id="SVGID_00000046337319241316385030000017645770947223564928_">
			<use xlink:href="#SVGID_00000123440558594177424580000001962229623078817417_"  style="overflow:visible;"/>
		</clipPath>
		<g style="clip-path:url(#SVGID_00000046337319241316385030000017645770947223564928_);">
			<g>
				<polygon style="fill:#FF8C24;" points="216.492,364.51 176.677,335.497 152.911,335.497 141.491,324.078 119.455,324.078 
					111.244,303.707 91.799,295.682 52.514,291.978 29.761,285.522 -1.588,281.269 -28.418,303.861 -33.511,332.72 -56.042,337.986 
					-66.227,364.51 				"/>
				<g>
					<polygon style="fill:#E57213;" points="137.68,364.51 135.055,324.078 119.455,324.078 128.996,364.51 					"/>
					<polygon style="fill:#E57213;" points="164.895,335.497 176.992,364.51 191.492,364.51 172.083,335.497 					"/>
					<polygon style="fill:#E57213;" points="41.722,364.51 24.412,294.743 24.589,322.89 11.713,364.51 					"/>
					<polygon style="fill:#E57213;" points="87.337,364.51 102.383,364.51 91.552,307.554 91.014,333.358 					"/>
				</g>
				<g>
					<polygon style="fill:#FFB522;" points="83.656,364.51 35.373,287.115 29.762,285.522 60.004,364.51 					"/>
					<polygon style="fill:#FFB522;" points="142.87,359.643 142.439,364.51 159.01,364.51 152.911,335.497 141.491,324.078 
						146.453,354.369 					"/>
					<polygon style="fill:#FFB522;" points="111.244,303.707 107.608,302.206 119.328,364.51 128.996,364.51 119.455,324.078 					
						"/>
				</g>
			</g>
			<g>
				<g>
					<rect x="-38.319" y="355.229" style="fill:#FFB522;" width="825.899" height="232.771"/>
				</g>
				<g>
					<path style="opacity:0.5;fill:#BEE5D8;" d="M787.579,355.235v13.327c-72.978,3.259-147.63,6.305-223.825,8.906
						c-191.651,6.549-393.064,10.259-602.063,7.369v-29.602H787.579z"/>
					<path style="opacity:0.5;fill:#BEE5D8;" d="M788.319,510.721v13.327c-73.043,3.26-147.762,6.305-224.026,8.906
						c-191.823,6.549-393.416,10.259-602.602,7.369v-29.602H788.319z"/>
					<path style="opacity:0.5;fill:#BEE5D8;" d="M787.579,426.978v30.046c-55.13,0.569-109.695,0.687-163.695,0.421
						c-232.608-1.116-454.39-9.239-662.193-18.774v-11.693H787.579z"/>
					<path style="opacity:0.3;fill:#BEE5D8;" d="M787.579,415.252v30.046c-113.934,1.168-225.564,0.429-334.499-1.619
						c-170.826-3.186-335.064-9.564-491.389-16.734v-11.693H787.579z"/>
					<path style="opacity:0.5;fill:#BEE5D8;" d="M787.579,456.008v15.707c-176.76,7.953-392.303,11.856-626.584,13.792
						c-65.13,0.547-131.695,0.931-199.303,1.22v-31.731c172.673,2.631,338.846,4.427,491.389,4.509
						C574.384,459.578,687.079,458.566,787.579,456.008z"/>
					<path style="opacity:0.3;fill:#BEE5D8;" d="M787.579,489.459v15.699c-51.456,2.314-106.174,4.287-163.695,5.965
						c-195.064,5.699-422.216,8.049-662.193,9.054v-31.731c106.847,1.626,211.195,2.934,311.368,3.71
						C463.515,493.642,638.862,493.236,787.579,489.459z"/>
					<path style="opacity:0.5;fill:#BEE5D8;" d="M787.579,465.804v32.863c-39.869,1.112-83.674,1.55-130.63,1.431
						c-194.391-0.438-443.237-10.221-695.258-20.548v-17.993c67.369,1.964,133.999,3.774,199.303,5.288
						C397.059,472.346,615.667,474.097,787.579,465.804z"/>
					<path style="opacity:0.5;fill:#BEE5D8;" d="M788.319,385.687v32.863c-39.869,1.112-83.674,1.55-130.63,1.431
						c-194.391-0.438-443.237-10.221-695.258-20.548V381.44c67.369,1.964,134,3.774,199.304,5.288
						C397.799,392.229,616.407,393.98,788.319,385.687z"/>
					<path style="opacity:0.5;fill:#BEE5D8;" d="M787.579,356.749v18.348c-180.478,7.358-358.281,14.279-514.52,17.484
						c-119.13,2.461-225.695,2.756-311.368-0.521v-33.466c185.217,10.564,430.411,8.222,695.258,1.656
						C700.036,359.186,743.623,358.003,787.579,356.749z"/>
				</g>
			</g>
			<g>
				<path style="fill:#FF8C24;" d="M814,288.12c0,0-454.128,36.071-475.915,65.955c-2.997,4.111,127.878,7.995,131.209,35.103
					c3.331,27.108-320.145,85.435-320.145,121.543s0,97.385,0,97.385l655.17,2.043L814,288.12z"/>
				<path style="opacity:0.2;fill:#79844C;" d="M241.762,490.303c29.908-5.044,58.753-16.66,89.268-15.048
					c19.479,1.029,37.984,7.443,57.442,8.694c55.363,3.56,103.704-34.454,159.249-34.124c35.21,0.21,69.948,15.982,104.137,9.335
					c32.362-6.292,53.724-30.735,83.789-42.089c22.993-8.683,49.225-9.093,74.813-11.204l-6.141,204.282l-655.17-2.043
					c0,0,0-61.277,0-97.385c0-6.085,7.06-12.355,18.771-18.706C192.69,494.118,217.341,494.421,241.762,490.303z"/>
				<g>
					<path style="fill:#FFB522;" d="M715.702,343.383c0,2.162-4.476,2.894-9.997,2.894c-5.521,0-9.492-1.455-9.492-3.617
						c0-2.162,4.981-3.617,10.502-3.617S715.702,341.221,715.702,343.383z"/>
					<path style="fill:#FFB522;" d="M347.714,460.245c0,1.561-3.897,2.089-8.704,2.089s-8.265-1.051-8.265-2.612
						c0-1.561,4.337-2.612,9.144-2.612C344.696,457.111,347.714,458.683,347.714,460.245z"/>
					<path style="fill:#FFB522;" d="M731.976,357.944c0.114,1.487-2.926,2.228-6.724,2.52c-3.798,0.292-6.607-0.499-6.721-1.986
						c-0.114-1.487,3.235-2.752,7.033-3.044C729.362,355.142,731.862,356.457,731.976,357.944z"/>
					<path style="fill:#FFB522;" d="M425.561,341.881c0.087,1.136-2.235,1.701-5.137,1.925c-2.901,0.223-5.047-0.381-5.134-1.517
						c-0.087-1.136,2.471-2.102,5.373-2.325C423.564,339.741,425.473,340.745,425.561,341.881z"/>
					<path style="fill:#FFB522;" d="M466.245,353.548c0.126,1.637-3.22,2.452-7.4,2.773c-4.18,0.322-7.271-0.549-7.397-2.186
						c-0.126-1.637,3.56-3.029,7.741-3.35C463.368,350.463,466.119,351.911,466.245,353.548z"/>
					<path style="fill:#FFB522;" d="M385.487,484.151c0.126,1.637-3.22,2.451-7.401,2.773c-4.18,0.322-7.271-0.549-7.397-2.186
						c-0.126-1.637,3.56-3.029,7.741-3.35C382.61,481.067,385.361,482.514,385.487,484.151z"/>
					<path style="fill:#FFB522;" d="M643.035,412.334c0.126,1.637-3.22,2.451-7.401,2.773c-4.18,0.322-7.271-0.549-7.397-2.186
						s3.56-3.029,7.741-3.35C640.158,409.25,642.909,410.697,643.035,412.334z"/>
					<path style="fill:#FFB522;" d="M438.315,466.659c0.147,1.907-1.525,2.838-6.397,3.213c-4.872,0.375-8.475-0.639-8.621-2.546
						c-0.147-1.907,4.15-3.529,9.022-3.903C437.191,463.047,438.168,464.752,438.315,466.659z"/>
					<path style="fill:#FFB522;" d="M494.86,335.884c0.11,1.433-4.594,2.282-10.442,2.732c-5.848,0.45-10.129-0.191-10.239-1.624
						s5.092-2.803,10.94-3.253C490.967,333.29,494.75,334.451,494.86,335.884z"/>
					<path style="fill:#FFB522;" d="M281.658,482.332c0.187,2.436-7.809,3.88-17.752,4.645c-9.943,0.765-17.22-0.324-17.407-2.76
						c-0.187-2.436,8.656-4.765,18.599-5.53C275.04,477.922,281.471,479.896,281.658,482.332z"/>
					<path style="fill:#FFB522;" d="M473.76,438.253c0.111,1.441-4.618,2.294-10.497,2.747s-10.183-0.192-10.293-1.632
						c-0.111-1.44,5.119-2.818,10.998-3.27C469.846,435.646,473.649,436.813,473.76,438.253z"/>
				</g>
			</g>
		</g>
		<g style="clip-path:url(#SVGID_00000046337319241316385030000017645770947223564928_);">
			<g>
				<path style="fill:#596339;" d="M800.909,518.499c0,0,72.596-28.049,63.471-44.43c-9.125-16.38-31.73-7.535-31.73-7.535
					s15.07-40.623-13.76-56.021c-28.829-15.398-37.637,26.864-37.637,26.864s-4.296-21.295-17.728-24.243
					c-13.432-2.948-15.07,19.711-15.07,19.711s-5.569-46.903-45.865-47.885c-40.296-0.983-11.466,57.659-11.466,57.659
					s-19.001-17.036-34.727-8.19c-15.725,8.845-2.621,26.209-2.621,26.209s-32.761-31.778-45.865-14.742
					c-13.104,17.036,13.76,33.744,13.76,33.744s-33.088-19.657-36.692,0.655C581.375,500.605,666.898,522,666.898,522
					L800.909,518.499z"/>
				<g>
					<path style="opacity:0.39;fill:#FFFFFF;" d="M701.164,400.84c6.936,0.695,15.656-1.126,15.969-4.251
						c0.313-3.125-5.056-6.222-11.991-6.917c-6.936-0.695-12.812,1.274-13.126,4.399
						C691.703,397.196,694.228,400.145,701.164,400.84z"/>
					<path style="opacity:0.39;fill:#FFFFFF;" d="M601.169,482.948c6.042,2.107,13.999,2.971,14.694,0.977
						c0.695-1.994-3.639-5.318-9.681-7.425c-6.042-2.107-11.503-2.198-12.198-0.204C593.288,478.29,595.127,480.841,601.169,482.948
						z"/>
					<path style="opacity:0.39;fill:#FFFFFF;" d="M657.825,459.041c3.287,3.731,7.786,5.597,9.517,3.615
						c1.922-2.201,0.009-5.733-3.278-9.465c-3.287-3.731-6.655-5.782-8.625-4.047C653.47,450.879,654.538,455.31,657.825,459.041z"
						/>
				</g>
			</g>
			<g>
				<path style="fill:#596339;" d="M-27.266,529.468c0,0-32.996-14.203-24.242-30.701c8.754-16.498,24.242,0,24.242,0
					s-17.845-41.413,7.744-52.86c25.588-11.448,29.629,33.669,29.629,33.669s7.744-40.066,24.578-40.74s3.367,39.393,3.367,39.393
					s10.774-37.709,41.076-27.945c30.302,9.764,4.377,31.312,4.377,31.312s18.518-17.171,26.935-7.407
					c8.417,9.764-6.061,23.232-6.061,23.232s34.006-18.855,37.709-0.673c3.704,18.181-17.508,32.721-17.508,32.721H-27.266z"/>
				<g>
					<path style="opacity:0.6;fill:#FFFFFF;" d="M84.061,470.396c-3.049,4.13-10.098,8.524-12.999,6.382
						c-2.901-2.142-0.179-9.462,2.87-13.591c3.049-4.13,6.951-6,9.851-3.858C86.685,461.47,87.11,466.266,84.061,470.396z"/>
					<path style="opacity:0.6;fill:#FFFFFF;" d="M26.691,445.766c2.162-1.879,7.289-3.382,8.682-1.778
						c1.394,1.604-1.624,5.35-3.787,7.228c-2.162,1.879-5.696,3.279-7.09,1.675S24.528,447.645,26.691,445.766z"/>
				</g>
			</g>
			<g>
				<path style="fill:#373F1E;" d="M534.638,519.523c0,0-51.368-19.847-44.911-31.438c6.457-11.591,22.451-5.332,22.451-5.332
					s-10.663-28.744,9.736-39.639c20.399-10.895,26.632,19.008,26.632,19.008s3.04-15.068,12.544-17.154
					s10.663,13.947,10.663,13.947s3.941-33.187,32.453-33.883c28.512-0.695,8.113,40.798,8.113,40.798s13.445-12.054,24.572-5.795
					c11.127,6.259,1.854,18.545,1.854,18.545s23.181-22.486,32.453-10.431c9.272,12.054-9.736,23.876-9.736,23.876
					s23.413-13.909,25.963,0.464c2.55,14.372-57.964,29.511-57.964,29.511L534.638,519.523z"/>
				<g>
					<path style="opacity:0.39;fill:#FFFFFF;" d="M605.217,436.27c-4.908,0.492-11.078-0.797-11.3-3.008
						c-0.222-2.211,3.577-4.402,8.485-4.894c4.908-0.492,9.066,0.902,9.287,3.113C611.911,433.691,610.124,435.778,605.217,436.27z"
						/>
					<path style="opacity:0.39;fill:#FFFFFF;" d="M675.971,494.367c-4.275,1.491-9.905,2.102-10.397,0.692
						c-0.492-1.411,2.575-3.763,6.85-5.254c4.275-1.491,8.139-1.555,8.631-0.145C681.547,491.072,680.246,492.877,675.971,494.367z"
						/>
					<path style="opacity:0.39;fill:#FFFFFF;" d="M635.882,477.451c-2.326,2.64-5.51,3.96-6.734,2.557
						c-1.36-1.557-0.006-4.057,2.319-6.697c2.326-2.64,4.709-4.091,6.103-2.864C638.964,471.676,638.208,474.811,635.882,477.451z"
						/>
				</g>
			</g>
		</g>
		<g style="clip-path:url(#SVGID_00000046337319241316385030000017645770947223564928_);">
			<g>
				<g>
					<path style="fill:#373F1E;" d="M817.454,327.788c-14.773,10.945-41.559,23.113-59.871,28.065
						c-36.418-122.529-75.841-191.808-127.57-227.973c3.688-7.017,6.687-2.274,11.08-7.782
						C701.031,153.344,794.321,246.319,817.454,327.788z"/>
				</g>
				<g>
					<path style="fill:#596339;" d="M628.853,118.061c-4.388,5.072-7.546,11.088-9.843,17.362
						c-2.349,6.416-4.013,13.156-4.782,19.948c-1.435,12.661,0.573,25.812,7.9,36.46c3.659,5.318,8.54,9.76,14.336,12.635
						c0.766,0.38,1.477-0.359,1.44-1.094c-0.162-3.204-0.324-6.408-0.485-9.612c-0.148-2.933-0.115-5.946-0.528-8.855
						c-0.352-2.474-1.438-4.562-3.214-6.31c-1.08-1.063-2.324-1.934-3.619-2.722c1.618-0.661,3.043-1.806,4.101-3.205
						c1.887-2.497,2.555-5.69,2.598-8.765c0.041-2.888-0.118-6.11-1.873-8.538c-1.138-1.574-2.789-2.583-4.544-3.366
						c1.449-0.656,2.742-1.609,3.331-3.132c0.584-1.512,0.259-3.075-0.105-4.592c-0.388-1.62-0.737-3.248-1.03-4.888
						c-1.164-6.525-1.511-13.175-1.035-19.786c0.043-0.593-0.344-0.977-0.794-1.104C630.516,117.8,629.485,117.331,628.853,118.061z
						"/>
					<path style="fill:#596339;" d="M626.99,122.46c0.155,0.441,0.563,0.802,1.152,0.722c6.567-0.895,13.226-0.973,19.812-0.226
						c1.655,0.188,3.302,0.432,4.943,0.717c1.537,0.266,3.118,0.492,4.589-0.188c1.483-0.684,2.352-2.036,2.913-3.524
						c0.894,1.701,2.006,3.285,3.649,4.32c2.534,1.597,5.76,1.551,8.64,1.326c3.066-0.239,6.21-1.109,8.581-3.151
						c1.329-1.145,2.381-2.639,2.938-4.297c0.869,1.242,1.817,2.428,2.947,3.439c1.857,1.661,4.01,2.612,6.502,2.806
						c2.93,0.228,5.935,0.002,8.871-0.036c3.208-0.042,6.416-0.085,9.623-0.127c0.736-0.01,1.428-0.766,1-1.507
						c-3.238-5.601-7.982-10.19-13.522-13.503c-11.093-6.634-24.345-7.801-36.889-5.564c-6.729,1.2-13.35,3.289-19.603,6.042
						c-6.115,2.692-11.919,6.226-16.701,10.928C625.746,121.316,626.28,122.315,626.99,122.46z"/>
					<path style="fill:#79844C;" d="M629.783,119.012c-6.515,1.591-12.574,4.666-18.082,8.449
						c-5.632,3.868-10.893,8.399-15.455,13.489c-8.505,9.488-14.487,21.371-14.685,34.295c-0.099,6.454,1.306,12.903,4.365,18.604
						c0.404,0.753,1.412,0.563,1.807-0.057c1.724-2.705,3.449-5.411,5.173-8.116c1.578-2.476,3.351-4.913,4.7-7.524
						c1.147-2.22,1.471-4.552,1.036-7.005c-0.265-1.492-0.774-2.922-1.373-4.315c1.702,0.399,3.526,0.291,5.199-0.236
						c2.984-0.942,5.379-3.157,7.195-5.638c1.706-2.33,3.443-5.049,3.419-8.044c-0.016-1.942-0.777-3.721-1.753-5.376
						c1.561,0.305,3.167,0.278,4.53-0.623c1.352-0.894,1.993-2.357,2.575-3.803c0.622-1.545,1.281-3.074,1.992-4.58
						c2.832-5.993,6.402-11.614,10.619-16.727c0.378-0.458,0.285-0.996-0.008-1.36C631.291,119.763,630.722,118.783,629.783,119.012
						z"/>
					<path style="fill:#79844C;" d="M629.641,121.934c0.382,0.269,0.924,0.327,1.357-0.079c4.834-4.534,10.216-8.455,16.017-11.662
						c1.458-0.806,2.942-1.56,4.444-2.28c1.407-0.673,2.826-1.406,3.632-2.812c0.812-1.417,0.737-3.022,0.333-4.56
						c1.714,0.869,3.538,1.515,5.477,1.408c2.991-0.167,5.593-2.073,7.81-3.924c2.36-1.971,4.419-4.502,5.169-7.54
						c0.42-1.703,0.411-3.531-0.095-5.204c1.428,0.509,2.888,0.926,4.394,1.096c2.476,0.278,4.782-0.194,6.925-1.48
						c2.52-1.512,4.839-3.436,7.21-5.169c2.59-1.893,5.18-3.786,7.77-5.679c0.594-0.434,0.72-1.452-0.058-1.808
						c-5.884-2.689-12.41-3.681-18.844-3.172c-12.885,1.02-24.363,7.745-33.291,16.837c-4.789,4.877-8.976,10.415-12.478,16.282
						c-3.425,5.737-6.107,11.98-7.281,18.583C627.964,121.722,628.978,122.227,629.641,121.934z"/>
					<path style="fill:#9FA060;" d="M631.076,120.163c-5.571-3.734-11.928-6.132-18.437-7.644
						c-6.655-1.546-13.549-2.372-20.384-2.304c-12.742,0.126-25.548,3.729-35.219,12.304c-4.83,4.282-8.641,9.671-10.785,15.775
						c-0.283,0.807,0.537,1.422,1.262,1.295c3.16-0.553,6.32-1.106,9.48-1.659c2.893-0.506,5.887-0.842,8.724-1.609
						c2.412-0.652,4.352-1.986,5.869-3.962c0.923-1.202,1.634-2.543,2.258-3.925c0.854,1.525,2.165,2.799,3.683,3.678
						c2.709,1.567,5.96,1.839,9.017,1.506c2.871-0.313,6.05-0.866,8.244-2.905c1.423-1.322,2.222-3.085,2.785-4.922
						c0.828,1.358,1.932,2.525,3.516,2.923c1.572,0.395,3.084-0.12,4.545-0.666c1.56-0.584,3.133-1.129,4.725-1.62
						c6.334-1.954,12.891-3.112,19.51-3.45c0.593-0.03,0.927-0.461,0.998-0.923C631.539,121.782,631.879,120.701,631.076,120.163z"
						/>
					<path style="fill:#9FA060;" d="M630.495,121.851c0.449-0.131,0.832-0.518,0.784-1.11c-0.532-6.606-0.242-13.259,0.867-19.794
						c0.279-1.642,0.614-3.273,0.988-4.896c0.351-1.52,0.663-3.086,0.066-4.593c-0.602-1.518-1.903-2.46-3.358-3.104
						c1.747-0.798,3.39-1.821,4.515-3.405c1.734-2.442,1.866-5.666,1.801-8.553c-0.069-3.074-0.764-6.262-2.673-8.742
						c-1.07-1.39-2.504-2.523-4.128-3.17c1.288-0.799,2.525-1.68,3.596-2.752c1.761-1.762,2.829-3.86,3.16-6.337
						c0.389-2.913,0.33-5.926,0.453-8.86c0.135-3.205,0.269-6.411,0.404-9.616c0.031-0.736-0.687-1.468-1.449-1.082
						c-5.771,2.924-10.615,7.408-14.228,12.756c-7.236,10.71-9.133,23.878-7.59,36.526c0.827,6.785,2.548,13.511,4.952,19.907
						c2.351,6.255,5.559,12.244,9.99,17.278C629.285,123.03,630.312,122.552,630.495,121.851z"/>
					<g>
						<path style="opacity:0.6;fill:#FFFFFF;" d="M590.583,155.805c0.916,0.321,0.616,3.56-0.67,7.236
							c-1.286,3.676-3.072,6.395-3.988,6.075c-0.916-0.321-0.616-3.56,0.671-7.236C587.881,158.204,589.667,155.484,590.583,155.805
							z"/>
						<path style="opacity:0.6;fill:#FFFFFF;" d="M676.618,105.175c3.72,0.021,6.728,1.224,6.72,2.685
							c-0.008,1.462-3.031,2.63-6.75,2.608c-3.72-0.021-6.728-1.224-6.72-2.685C669.876,106.322,672.898,105.154,676.618,105.175z"
							/>
						<path style="opacity:0.6;fill:#FFFFFF;" d="M653.009,85.327c0.629,0.59-1.069,3.422-3.792,6.324
							c-2.723,2.903-5.441,4.777-6.07,4.187c-0.629-0.59,1.069-3.422,3.792-6.324C649.662,86.612,652.379,84.737,653.009,85.327z"/>
						<path style="opacity:0.6;fill:#FFFFFF;" d="M603.579,115.424c-0.061,0.831-3.939,1.222-8.661,0.872
							c-4.722-0.35-8.5-1.307-8.439-2.138c0.062-0.831,3.939-1.222,8.661-0.872C599.863,113.635,603.641,114.593,603.579,115.424z"
							/>
					</g>
				</g>
				<g>
					<path style="fill:#F4D432;" d="M635.841,124.003c4.017,3.769,4.218,10.08,0.449,14.097c-3.769,4.017-10.08,4.218-14.097,0.449
						c-4.017-3.769-4.218-10.08-0.449-14.097C625.513,120.436,631.824,120.235,635.841,124.003z"/>
					<path style="fill:#F4D432;" d="M644.9,109.795c4.017,3.769,4.218,10.08,0.449,14.097c-3.769,4.017-10.08,4.218-14.097,0.449
						c-4.017-3.769-4.218-10.08-0.449-14.097C634.571,106.227,640.883,106.026,644.9,109.795z"/>
					<path style="fill:#FFB522;" d="M647.66,119.704c4.017,3.769,4.218,10.08,0.449,14.097c-3.769,4.017-10.08,4.218-14.097,0.449
						c-4.017-3.769-4.218-10.08-0.449-14.097C637.332,116.137,643.643,115.936,647.66,119.704z"/>
					<g>
						<path style="opacity:0.6;fill:#FFFFFF;" d="M623.013,129.434c-0.403,1.719-1.359,2.966-2.137,2.784
							c-0.778-0.182-1.082-1.724-0.679-3.443c0.403-1.72,1.359-2.966,2.137-2.784C623.112,126.173,623.416,127.715,623.013,129.434z
							"/>
						<path style="opacity:0.6;fill:#FFFFFF;" d="M635.814,128.636c0.669,1.606,0.45,3.226-0.49,3.617
							c-0.94,0.392-2.245-0.592-2.915-2.198c-0.669-1.606-0.45-3.226,0.49-3.617C633.84,126.046,635.145,127.03,635.814,128.636z"/>
						<path style="opacity:0.6;fill:#FFFFFF;" d="M631.801,118.104c0.219,1.388-0.221,2.61-0.981,2.73
							c-0.761,0.12-1.555-0.908-1.773-2.296c-0.219-1.388,0.221-2.61,0.981-2.73C630.788,115.688,631.582,116.716,631.801,118.104z"
							/>
					</g>
				</g>
			</g>
			<g>
				<g>
					<path style="fill:#373F1E;" d="M-55.868,411.131c11.327,7.655,31.617,15.831,45.38,18.92
						c23.107-92.195,50.161-144.929,87.424-173.461c-2.966-5.094-5.041-1.474-8.482-5.424C25,277.794-41.307,349.866-55.868,411.131
						z"/>
				</g>
				<g>
					<path style="fill:#596339;" d="M76.119,249.644c-0.33,0.109-0.605,0.407-0.554,0.846c0.566,4.895,0.523,9.847-0.132,14.732
						c-0.164,1.228-0.371,2.448-0.608,3.664c-0.221,1.138-0.413,2.31,0.07,3.415c0.486,1.112,1.478,1.779,2.575,2.219
						c-1.278,0.638-2.472,1.441-3.267,2.647c-1.226,1.86-1.24,4.259-1.117,6.403c0.131,2.283,0.73,4.633,2.212,6.427
						c0.831,1.005,1.926,1.81,3.15,2.249c-0.937,0.627-1.833,1.314-2.601,2.139c-1.263,1.355-2.002,2.941-2.184,4.791
						c-0.214,2.175-0.092,4.412-0.107,6.595c-0.017,2.385-0.034,4.771-0.051,7.156c-0.004,0.547,0.548,1.073,1.105,0.766
						c4.213-2.323,7.696-5.78,10.243-9.848c5.1-8.146,6.168-17.98,4.694-27.34c-0.791-5.02-2.243-9.974-4.195-14.665
						c-1.909-4.587-4.448-8.954-7.872-12.581C76.988,248.736,76.238,249.118,76.119,249.644z"/>
					<path style="fill:#596339;" d="M79.361,251.095c-3.704-3.339-8.129-5.777-12.758-7.58c-4.734-1.843-9.72-3.182-14.757-3.857
						c-9.391-1.258-19.197,0.036-27.224,5.321c-4.008,2.639-7.385,6.201-9.61,10.466c-0.294,0.564,0.244,1.103,0.792,1.087
						c2.384-0.072,4.769-0.144,7.153-0.215c2.182-0.066,4.422,0.005,6.591-0.259c1.845-0.224,3.413-1,4.739-2.294
						c0.807-0.787,1.472-1.698,2.078-2.649c0.467,1.213,1.296,2.289,2.321,3.097c1.827,1.441,4.191,1.986,6.476,2.064
						c2.146,0.074,4.544,0.004,6.375-1.264c1.187-0.822,1.962-2.035,2.571-3.327c0.465,1.087,1.154,2.063,2.278,2.524
						c1.115,0.457,2.282,0.239,3.415-0.008c1.21-0.264,2.425-0.499,3.649-0.692c4.869-0.767,9.818-0.924,14.725-0.47
						c0.44,0.041,0.731-0.241,0.833-0.574C79.53,252.336,79.895,251.576,79.361,251.095z"/>
					<path style="fill:#79844C;" d="M75.934,251.098c-0.206,0.28-0.257,0.682,0.038,1.01c3.298,3.662,6.131,7.723,8.427,12.084
						c0.577,1.096,1.116,2.211,1.627,3.338c0.479,1.056,1.002,2.122,2.035,2.742c1.041,0.625,2.235,0.594,3.385,0.317
						c-0.672,1.261-1.18,2.607-1.129,4.05c0.079,2.226,1.457,4.189,2.799,5.866c1.429,1.785,3.28,3.353,5.527,3.957
						c1.26,0.338,2.618,0.359,3.87,0.008c-0.4,1.054-0.732,2.133-0.881,3.25c-0.244,1.836,0.072,3.558,0.995,5.17
						c1.086,1.896,2.481,3.649,3.734,5.438c1.368,1.954,2.736,3.908,4.104,5.862c0.314,0.448,1.069,0.557,1.345-0.016
						c2.088-4.334,2.924-9.17,2.643-13.961c-0.563-9.594-5.39-18.229-12.013-25.003c-3.553-3.634-7.607-6.83-11.916-9.522
						c-4.213-2.633-8.813-4.722-13.705-5.694C76.116,249.855,75.725,250.601,75.934,251.098z"/>
					<path style="fill:#79844C;" d="M78.104,251.248c-1.084-4.867-3.278-9.418-6.007-13.57c-2.791-4.245-6.079-8.225-9.794-11.693
						c-6.925-6.466-15.668-11.093-25.273-11.435c-4.796-0.171-9.612,0.776-13.896,2.963c-0.566,0.289-0.44,1.041,0.015,1.345
						c1.985,1.323,3.97,2.646,5.955,3.969c1.817,1.211,3.601,2.566,5.522,3.608c1.633,0.886,3.362,1.163,5.192,0.876
						c1.113-0.174,2.184-0.531,3.229-0.955c-0.322,1.259-0.27,2.617,0.097,3.869c0.655,2.233,2.266,4.047,4.083,5.435
						c1.707,1.304,3.701,2.636,5.928,2.664c1.444,0.018,2.778-0.521,4.023-1.222c-0.25,1.156-0.254,2.35,0.395,3.377
						c0.644,1.019,1.722,1.517,2.788,1.972c1.139,0.486,2.266,0.999,3.375,1.55c4.412,2.196,8.537,4.935,12.274,8.148
						c0.335,0.288,0.736,0.227,1.011,0.015C77.523,252.358,78.26,251.95,78.104,251.248z"/>
					<path style="fill:#9FA060;" d="M76.113,252.291c0.068,0.341,0.33,0.65,0.771,0.654c4.928,0.037,9.837,0.687,14.605,1.934
						c1.198,0.314,2.384,0.668,3.562,1.052c1.103,0.359,2.242,0.692,3.397,0.348c1.164-0.347,1.947-1.249,2.518-2.284
						c0.477,1.346,1.128,2.63,2.227,3.566c1.696,1.444,4.075,1.752,6.218,1.892c2.282,0.149,4.688-0.158,6.65-1.409
						c1.1-0.702,2.032-1.69,2.618-2.851c0.508,1.007,1.08,1.98,1.804,2.843c1.19,1.419,2.674,2.347,4.487,2.754
						c2.132,0.478,4.368,0.631,6.533,0.914c2.365,0.309,4.731,0.618,7.096,0.927c0.543,0.071,1.132-0.413,0.896-1.003
						c-1.789-4.465-4.794-8.346-8.52-11.371c-7.461-6.059-17.09-8.323-26.559-8.006c-5.08,0.17-10.174,1.005-15.068,2.368
						c-4.786,1.333-9.432,3.318-13.45,6.272C75.319,251.317,75.606,252.109,76.113,252.291z"/>
					<path style="fill:#9FA060;" d="M77.772,252.404c3.13-3.883,5.32-8.435,6.865-13.157c1.58-4.829,2.641-9.881,3.037-14.948
						c0.738-9.446-1.095-19.166-6.815-26.889c-2.856-3.857-6.599-7.032-10.98-9.018c-0.579-0.262-1.088,0.305-1.042,0.85
						c0.203,2.377,0.406,4.754,0.61,7.13c0.186,2.175,0.239,4.415,0.622,6.567c0.326,1.829,1.187,3.353,2.551,4.606
						c0.83,0.762,1.777,1.377,2.76,1.929c-1.185,0.533-2.215,1.421-2.964,2.488c-1.338,1.904-1.751,4.294-1.704,6.58
						c0.045,2.147,0.246,4.537,1.613,6.296c0.886,1.14,2.14,1.847,3.464,2.384c-1.06,0.525-1.996,1.266-2.394,2.414
						c-0.395,1.139-0.113,2.292,0.197,3.41c0.33,1.194,0.632,2.394,0.892,3.605c1.034,4.819,1.464,9.752,1.282,14.676
						c-0.016,0.442,0.281,0.717,0.618,0.8C76.542,252.642,77.321,252.964,77.772,252.404z"/>
					<g>
						<path style="opacity:0.6;fill:#FFFFFF;" d="M107.127,276.064c-0.67,0.268-0.343,2.664,0.731,5.354
							c1.074,2.689,2.488,4.652,3.158,4.384c0.67-0.268,0.343-2.664-0.731-5.353C109.211,277.759,107.797,275.796,107.127,276.064z"
							/>
						<path style="opacity:0.6;fill:#FFFFFF;" d="M41.584,241.225c-2.763,0.136-4.959,1.126-4.905,2.211
							c0.053,1.086,2.336,1.856,5.098,1.72c2.762-0.136,4.959-1.126,4.905-2.211S44.346,241.089,41.584,241.225z"/>
						<path style="opacity:0.6;fill:#FFFFFF;" d="M58.483,225.72c-0.448,0.459,0.904,2.507,3.021,4.576
							c2.117,2.068,4.196,3.374,4.644,2.915c0.448-0.459-0.904-2.507-3.021-4.576C61.011,226.566,58.931,225.261,58.483,225.72z"/>
						<path style="opacity:0.6;fill:#FFFFFF;" d="M96.171,246.486c0.072,0.616,2.966,0.781,6.462,0.369
							c3.497-0.412,6.272-1.244,6.2-1.86c-0.073-0.616-2.966-0.781-6.462-0.369S96.099,245.87,96.171,246.486z"/>
					</g>
				</g>
				<g>
					<path style="fill:#F4D432;" d="M72.482,253.898c-2.862,2.929-2.809,7.624,0.121,10.486c2.929,2.862,7.624,2.809,10.486-0.121
						c2.862-2.929,2.809-7.624-0.121-10.486C80.039,250.915,75.344,250.969,72.482,253.898z"/>
					<path style="fill:#F4D432;" d="M65.295,243.635c-2.862,2.929-2.809,7.624,0.12,10.486c2.929,2.862,7.624,2.809,10.487-0.12
						c2.862-2.929,2.809-7.624-0.121-10.486C72.852,240.652,68.157,240.706,65.295,243.635z"/>
					<path style="fill:#FFB522;" d="M63.563,251.085c-2.862,2.929-2.809,7.624,0.12,10.486c2.929,2.862,7.624,2.809,10.487-0.121
						c2.862-2.929,2.809-7.624-0.121-10.486C71.121,248.102,66.426,248.156,63.563,251.085z"/>
					<g>
						<path style="opacity:0.6;fill:#FFFFFF;" d="M82.186,257.519c0.354,1.264,1.105,2.159,1.677,1.999
							c0.572-0.16,0.748-1.315,0.394-2.579c-0.354-1.264-1.105-2.159-1.677-1.999C82.008,255.1,81.831,256.255,82.186,257.519z"/>
						<path style="opacity:0.6;fill:#FFFFFF;" d="M72.651,257.338c-0.446,1.214-0.23,2.411,0.481,2.671
							c0.711,0.261,1.649-0.512,2.094-1.727c0.446-1.214,0.23-2.411-0.481-2.671C74.034,255.351,73.096,256.124,72.651,257.338z"/>
						<path style="opacity:0.6;fill:#FFFFFF;" d="M75.293,249.385c-0.118,1.038,0.248,1.932,0.817,1.997
							c0.569,0.064,1.126-0.725,1.243-1.763c0.118-1.038-0.248-1.932-0.817-1.997C75.968,247.558,75.411,248.347,75.293,249.385z"/>
					</g>
				</g>
			</g>
		</g>
	</g>
	<g>
		<g>
			<g>
				<path style="fill:#F4D432;" d="M319.318,114.429c-1.421,0.758-2.91,1.634-4.417,2.458c-8.212,4.49-9.227,16.589-2.828,22.533
					c0.964,0.895,2.059,1.792,3.107,2.695c1.02,0.878,0.42,2.627-0.951,2.741c-1.514,0.127-3.116,0.355-4.712,0.56
					c-9.407,1.212-14.616,12.379-10.833,20.272c0.666,1.39,1.483,2.847,2.257,4.298c0.643,1.205-0.518,2.613-1.853,2.246
					c-1.498-0.412-3.094-0.772-4.666-1.157c-9.268-2.271-18.27,6.373-17.567,15.142c0.124,1.542,0.362,3.197,0.55,4.81
					c0.158,1.353-1.438,2.236-2.574,1.428c-1.406-1.001-2.843-1.991-4.302-2.943c-8.282-5.406-19.931-1.012-22.447,8.231
					c-0.312,1.145-0.578,2.379-0.862,3.591c-0.328,1.404-2.332,1.663-3.043,0.389c-0.762-1.366-1.57-2.713-2.43-4.007
					c-5.372-8.085-19.069-8.809-24.691-0.448c-0.77,1.145-1.585,2.334-2.332,3.542c-0.78,1.262-2.811,0.888-3.028-0.565
					c-0.173-1.158-0.367-2.311-0.594-3.441c-1.887-9.376-14.009-14.424-22.096-9.22c-1.647,1.06-3.357,2.124-4.958,3.232
					c-1.127,0.78-2.666-0.108-2.517-1.448c0.212-1.917,0.388-3.859,0.63-5.674c1.292-9.685-8.967-17.049-17.499-15.173
					c-0.921,0.202-1.884,0.485-2.829,0.752c-1.422,0.401-2.548-1.215-1.691-2.438c0.796-1.136,1.561-2.277,2.277-3.421
					c5.087-8.126-0.008-20.797-10.068-21.714c-1.44-0.131-2.961-0.303-4.469-0.426c-1.422-0.116-1.906-2.031-0.739-2.911
					c1.061-0.8,2.11-1.602,3.12-2.408c7.352-5.867,7.295-19.119-1.306-23.982c-1.278-0.723-2.6-1.507-3.928-2.235
					c-1.236-0.677-1.014-2.621,0.345-2.991c1.526-0.416,3.116-0.878,4.631-1.442c8.777-3.271,12.58-14.765,6.546-22.578
					c-1.01-1.308-2.054-2.558-3.113-3.746c-0.972-1.091-0.11-2.833,1.325-2.669c1.345,0.154,2.719,0.33,4.013,0.405
					c8.785,0.507,17.833-8.515,14.831-17.935c-0.538-1.69-1.058-3.43-1.646-5.056c-0.484-1.34,0.937-2.543,2.239-1.896
					c1.458,0.724,2.921,1.483,4.319,2.103c7.934,3.52,20.364-0.833,20.981-10.997c0.092-1.52,0.204-3.065,0.233-4.547
					c0.029-1.433,1.932-2.001,2.94-0.882c1.096,1.218,2.241,2.407,3.304,3.555c6.697,7.229,20.503,5.908,24.886-3.096
					c0.585-1.203,1.13-2.456,1.649-3.716c0.547-1.328,2.631-1.261,3.177,0.111c0.615,1.546,1.324,3.111,2.007,4.65
					c4.026,9.073,17.45,11.607,24.622,5.074c0.915-0.833,1.808-1.72,2.678-2.622c1.023-1.061,2.965-0.326,2.931,1.118
					c-0.032,1.378-0.054,2.864,0.062,4.298c0.73,9.076,11.559,16.281,20.596,12.429c1.22-0.52,2.524-1.036,3.801-1.585
					c1.355-0.583,2.731,0.75,2.136,2.056c-0.648,1.423-1.32,3.035-1.836,4.704c-2.586,8.363,4.251,18.782,13.863,18.111
					c1.134-0.079,2.334-0.131,3.515-0.225c1.477-0.118,2.238,1.676,1.125,2.672c-0.831,0.743-1.67,1.539-2.434,2.382
					c-6.226,6.865-4.5,18.835,4.922,22.264c1.78,0.648,3.634,1.282,5.515,1.913C320.446,112.014,320.527,113.784,319.318,114.429z"
					/>
			</g>
			<path style="fill:#FFB522;" d="M298.667,115.719c0-37.387-27.855-62.626-65.242-62.626s-67.694,30.308-67.694,67.694
				c0,37.387,32.434,61.951,69.82,61.951S298.667,153.106,298.667,115.719z"/>
			<path style="opacity:0.6;fill:#FFFFFF;" d="M282.951,98.322c-4.225,5.58-13.609-2.685-24.393-10.851
				c-10.784-8.166-18.886-13.141-14.66-18.721c4.225-5.58,15.504-5.597,26.288,2.569C280.97,79.485,287.176,92.742,282.951,98.322z"
				/>
		</g>
		<g>
			<path style="fill:#FFFFFF;" d="M213.929,269.947h131.108c0.408-1.886,0.57-3.825,0.463-5.746
				c-0.284-5.124-2.419-10.253-6.337-13.568c-3.918-3.315-9.688-4.545-14.4-2.51c-1.842,0.795-3.437,2.125-4.628,3.743
				c-1.449-4.034-5.46-6.834-9.68-7.487c-0.313-0.048-0.626-0.083-0.94-0.113c0.319-4.154-0.282-8.365-1.913-12.209
				c-4.078-9.608-14.474-16.246-24.891-15.582c-4,0.255-8.181,1.678-10.557,4.904c-2.225,3.022-2.484,7.029-2.444,10.782
				c0.071,6.696,0.84,13.381,2.26,19.925c-0.957-1.254-2.182-2.298-3.61-2.977c-4.001-1.904-9.208-0.823-12.12,2.517
				c-1.994,2.287-2.791,5.497-2.315,8.483c-2.619-4.554-7.908-7.619-13.188-7.15c-6.67,0.593-12.381,6.733-12.489,13.429
				c-2.567-3.465-8.225-3.666-11.498-0.857C215.391,266.698,214.457,268.247,213.929,269.947z"/>
			<path style="fill:#FFFFFF;" d="M52.165,117.916c-0.442-0.402-0.762-0.874-0.893-1.436c-0.465-1.994,2.039-3.764,4.45-3.823
				c1.413-0.034,2.757,0.33,4.042,0.851c-0.615-0.489-1.12-1.076-1.447-1.734c-0.722-1.45-0.595-3.182,0.333-4.546
				c1.248-1.834,3.851-2.876,6.356-2.758c2.256,0.106,4.431,1.098,5.77,2.631c0.728,0.834,1.199,1.819,1.391,2.842
				c-0.02-2.244-0.285-4.497-0.077-6.736c0.288-3.099,1.775-6.413,5.048-7.846c2.303-1.009,5.065-0.902,7.618-0.508
				c3.691,0.57,7.575,1.911,9.319,4.711c0.63,1.012,0.916,2.132,0.933,3.271c2.46-0.168,4.97,0.221,7.284,0.966
				c2.883,0.928,5.768,2.73,6.148,5.311c0.222,1.505-0.472,3.024-1.53,4.251c-0.935,1.085-2.139,1.978-3.364,2.84
				c0.983-0.661,2.091-1.209,3.326-1.367c1.44-0.185,3.071,0.275,3.782,1.346c0.356,0.536,0.424,1.142,0.289,1.734H52.165z"/>
			<path style="fill:#FFFFFF;" d="M382.01,106.243c-0.768-0.831-1.326-1.806-1.554-2.965c-0.809-4.119,3.549-7.775,7.745-7.896
				c2.46-0.071,4.799,0.682,7.035,1.758c-1.071-1.01-1.949-2.224-2.519-3.582c-1.257-2.996-1.036-6.571,0.58-9.39
				c2.172-3.789,6.703-5.94,11.063-5.696c3.926,0.219,7.712,2.268,10.042,5.435c1.268,1.722,2.087,3.758,2.421,5.869
				c-0.035-4.635-0.497-9.289-0.134-13.912c0.502-6.401,3.089-13.246,8.786-16.206c4.008-2.083,8.816-1.862,13.259-1.048
				c6.424,1.177,13.184,3.948,16.219,9.731c1.097,2.091,1.595,4.404,1.625,6.757c4.281-0.347,8.65,0.456,12.678,1.994
				c5.018,1.917,10.038,5.638,10.701,10.969c0.386,3.108-0.822,6.246-2.663,8.78c-1.628,2.242-3.724,4.086-5.855,5.865
				c1.712-1.365,3.64-2.496,5.789-2.824c2.506-0.382,5.346,0.568,6.582,2.781c0.619,1.108,0.739,2.358,0.503,3.581H382.01z"/>
		</g>
	</g>
	<g>
		<g>
			<polygon style="fill:#822948;" points="502.816,274.171 527.522,379.013 544.711,372.758 506.398,272.961 			"/>
			<g>
				<path style="fill:#85C6C1;" d="M421.251,295.578c-1.004-44.993,12.723-94.635,34.041-146.673
					c51.69,30.412,98.783,61.451,130.138,94.638c1.839,1.946,1.718,4.894-0.239,6.013c-50.923,29.114-103.693,47.876-159.336,50.525
					C423.53,300.194,421.306,298.028,421.251,295.578z"/>
				<path style="fill:#BEE5D8;" d="M457.789,296.774c34.382-5.456,67.703-16.86,100.219-32.784
					c-26.917-38.39-62.797-76.416-101.437-114.33c-0.302-0.178-0.602-0.356-0.904-0.534
					C451.05,200.259,450.558,249.908,457.789,296.774z"/>
				<path style="fill:#85C6C1;" d="M488.584,290.252c13.893-3.666,27.618-8.271,41.194-13.706
					c-20.863-41.395-46.177-83.806-72.843-126.526c-0.122-0.12-0.243-0.24-0.365-0.359c-0.107-0.063-0.213-0.126-0.319-0.189
					C464.934,197.476,475.244,244.644,488.584,290.252z"/>
				<path style="opacity:0.6;fill:#FFFFFF;" d="M439.563,210.021c-0.821,14.868,3.923,26.951,10.596,26.989
					c6.673,0.038,7.708-12.012,8.529-26.88c0.821-14.868,1.118-26.922-5.556-26.96C446.459,183.132,440.384,195.154,439.563,210.021
					z"/>
			</g>
		</g>
		<g>
			<g>
				<g>
					<path style="fill:#20384F;" d="M653.973,383.133l5.824,20.003c0.272,0.934-0.511,2.076-1.512,2.206l-3.001,0.389
						c-0.503,0.065-0.945-0.152-1.163-0.571l-9.81-18.863c-0.457-0.879,0.242-2.171,1.301-2.402l6.986-1.528
						C653.24,382.225,653.8,382.538,653.973,383.133z"/>
					<path style="fill:#20384F;" d="M536.728,413.638l3.042,16.991c0.17,0.952-0.655,1.926-1.63,1.925l-1.34-0.001
						c-0.491-0.001-0.913-0.259-1.118-0.684l-8.369-17.342c-0.487-1.009,0.438-2.32,1.593-2.259l6.667,0.352
						C536.164,412.652,536.624,413.057,536.728,413.638z"/>
					<path style="fill:#20384F;" d="M479.778,397.984l-5.172,15.947c-0.305,0.939,0.396,1.903,1.383,1.903h1.465
						c0.437,0,0.851-0.197,1.127-0.535l9.844-12.074c0.551-0.676,0.387-1.683-0.351-2.149l-6.137-3.873
						C481.135,396.697,480.07,397.082,479.778,397.984z"/>
				</g>
				<path style="fill:#20384F;" d="M673.995,322.994l2.119,4.181c0.974,1.921,1.156,4.143,0.507,6.197
					c-4.499,14.251-10.387,30.348-18.902,45.641c-0.989,1.776-2.593,3.133-4.514,3.798c-38.45,13.316-76.915,24.708-115.396,33.994
					c-5.5,1.327-11.256,1.249-16.689-0.333c-12.195-3.55-24.489-8.287-36.866-14.018c-2.171-1.005-3.769-2.942-4.321-5.27
					l-1.155-4.871l105.482-24.845l47.738-41.558L673.995,322.994z"/>
				<path style="fill:#2E516D;" d="M616.17,311.397l55.916,10.319c1.735,0.32,2.781,2.094,2.242,3.774
					c-5.071,15.816-11.892,31.654-20.086,47.509c-1.719,3.326-4.641,5.884-8.173,7.122c-36.553,12.811-74.226,23.438-113.096,31.729
					c-3.168,0.676-6.463,0.524-9.56-0.422c-16.102-4.922-30.716-10.482-43.109-16.993c-2.353-1.236-1.968-4.715,0.599-5.402
					l96.651-25.886c0.669-0.179,1.253-0.591,1.646-1.161l34.041-49.376C613.893,311.664,615.04,311.189,616.17,311.397z"/>
			</g>
			<g>
				<path style="fill:#BA4065;" d="M661.997,301.52c2.12,3.239,4.219,6.627,6.301,10.149c1.829,3.094,2.088,6.879,0.718,10.201
					c-6.992,16.954-14.135,33.377-21.479,49.093c-1.333,2.854-3.791,5.031-6.78,6.024c-37.694,12.527-74.523,23.45-110.009,30.182
					c-1.76,0.334-3.574,0.25-5.296-0.247c-14.736-4.25-28.645-9.113-38.873-13.395c-3.596-1.505-6.18-4.728-6.876-8.564
					l-1.313-7.234l103.833-27.282l25.725-51.007L661.997,301.52z"/>
				<path style="fill:#D85B88;" d="M662.711,305.038c-6.064,19.596-14.239,38.75-24.533,57.462
					c-0.507,0.922-1.351,1.617-2.352,1.942c-34.83,11.313-70.169,21.117-106.077,29.232c-1.598,0.361-3.247,0.462-4.873,0.261
					c-15.496-1.907-30.167-6.229-44.028-12.928c-3.358-1.623-3.058-6.494,0.487-7.652c28.112-9.185,56.214-17.376,84.306-24.31
					c1.173-0.289,2.153-1.079,2.691-2.16c8.81-17.692,19.271-34.692,31.891-50.786c0.784-1,1.992-1.585,3.263-1.581
					c18.582,0.069,37.251,1.814,56.006,5.223C661.938,300.186,663.445,302.663,662.711,305.038z"/>
				<path style="fill:#E498AC;" d="M580.362,324.954c1.885-3.128,3.834-6.23,5.848-9.305c22.41,5.031,44.819,10.061,67.229,15.092
					c-1.337,3.238-2.737,6.463-4.195,9.676C626.284,335.263,603.323,330.109,580.362,324.954z M639.264,360.496
					c1.694-3.13,3.33-6.271,4.905-9.426c-22.871-5.951-45.741-11.901-68.612-17.851c-1.74,3.105-3.422,6.236-5.05,9.388
					C593.426,348.57,616.345,354.533,639.264,360.496z M661.164,309.87c-21.107-3.88-42.287-7.352-63.526-10.418
					c-2.366,3.114-4.652,6.261-6.866,9.439c22.389,3.164,44.71,6.795,66.952,10.874C658.933,316.479,660.077,313.181,661.164,309.87
					z M608.802,372.88c6.309-1.892,12.601-3.835,18.876-5.826c-21.895-5.696-43.789-11.392-65.684-17.088
					c-6.864,1.721-13.728,3.514-20.594,5.379C563.868,361.19,586.335,367.035,608.802,372.88z M577.12,381.914
					c6.311-1.706,12.605-3.463,18.882-5.271c-21.25-6.258-42.5-12.517-63.749-18.775c-6.183,1.736-12.367,3.524-18.552,5.368
					C534.841,369.462,555.981,375.688,577.12,381.914z M543.229,390.542c6.675-1.593,13.33-3.244,19.966-4.952
					c-20.826-6.133-41.652-12.267-62.478-18.4c-5.897,1.828-11.794,3.703-17.692,5.621
					C503.092,378.721,523.16,384.632,543.229,390.542z"/>
				<path style="opacity:0.6;fill:#FFFFFF;" d="M492.48,376.271c0.806,2.265,11.539,0.514,23.973-3.912
					c12.434-4.426,19.282-7.575,18.476-9.84c-0.806-2.265-12.264-0.305-24.697,4.121
					C497.798,371.066,491.674,374.006,492.48,376.271z"/>
			</g>
		</g>
	</g>
	<g>
		<path style="fill:#85C6C1;" d="M596.872,382.963c-1.161,13.855,11.355,30.12,30.511,34.94c20.237,5.092,35.312-3.81,36.277-19.102
			c0.957-15.152-15.607-31.056-35.447-34.56C609.413,360.921,598.023,369.223,596.872,382.963z M617.678,381.36
			c0.306-3.946,4.638-6.086,11.774-4.704c7.281,1.409,13.212,6.092,12.926,10.183c-0.286,4.101-5.538,6.357-12.864,4.786
			C622.335,390.086,617.371,385.315,617.678,381.36z"/>
		<path style="fill:#F4D432;" d="M663.661,398.801c-0.296,4.685-1.947,8.795-4.701,12.091c-0.694-2.273-1.398-4.535-2.421-6.555
			c-1.696-3.349-4.168-5.812-6.749-7.653c-2.561-1.826-5.259-3.101-7.879-4.563c-0.65-0.362-1.353-0.849-1.797-1.559
			c1.353-0.916,2.157-2.193,2.264-3.725c0.028-0.401-0.006-0.808-0.094-1.218c1.109-0.435,2.342-0.483,3.53-0.498
			c4.237-0.053,8.554-0.076,12.857,1.033c0.771,0.199,1.539,0.446,2.304,0.725C662.925,390.769,663.912,394.828,663.661,398.801z
			 M628.214,364.241c-1.766-0.312-3.462-0.52-5.089-0.634c1.096,3.112,1.985,6.384,2.637,9.759c0.195,1.008,0.403,2.095,0.84,2.916
			c0.893,0.06,1.84,0.178,2.851,0.373c0.601,0.116,1.191,0.257,1.771,0.415c0.273-0.423,0.442-0.983,0.614-1.514
			c0.519-1.605,1.224-3.084,2.073-4.378c0.756-1.153,1.627-2.163,2.583-2.991c0.474-0.411,0.97-0.777,1.483-1.095
			c0.014-0.009,0.03-0.017,0.045-0.026C634.891,365.807,631.602,364.84,628.214,364.241z M627.383,417.903
			c2.237,0.563,4.411,0.945,6.518,1.174c0.137-2.229,0.172-4.478,0.11-6.728c-0.188-6.809-1.231-13.566-2.795-20.003
			c-0.035-0.143-0.07-0.289-0.104-0.437c-0.521-0.075-1.053-0.168-1.598-0.285c-1.68-0.36-3.236-0.898-4.632-1.559
			c-0.461,0.741-0.869,1.557-1.241,2.335c-2.019,4.221-3.951,8.545-5.425,13.22c-0.796,2.524-1.451,5.165-1.909,7.885
			C619.663,415.379,623.373,416.894,627.383,417.903z M599.192,395.433c0.878-1.126,1.631-2.59,2.431-3.856
			c1.933-3.062,4.483-5.242,7.232-6.562c2.767-1.328,5.741-1.814,8.727-1.767c0.105,0.002,0.213,0.001,0.322-0.002
			c-0.194-0.637-0.273-1.271-0.225-1.886c0.075-0.964,0.392-1.816,0.924-2.537c-3.179-3.819-7.397-5.053-11.385-5.779
			c-2.273-0.414-4.601-0.692-6.856-0.503c-1.96,2.903-3.154,6.419-3.489,10.421C596.529,387.057,597.371,391.325,599.192,395.433z"
			/>
		<path style="opacity:0.6;fill:#FFFFFF;" d="M600.045,385.223c-1.231,1.81-0.716,6.511,1.824,10.288
			c2.566,3.815,6.231,5.257,7.494,3.427c1.265-1.833-1.803-4.131-4.391-7.932C602.411,387.243,601.279,383.41,600.045,385.223z"/>
	</g>
</g>
</svg>
